<?xml version="1.0" encoding="utf-8"?>
<!-- Generator: Adobe Illustrator 22.0.1, SVG Export Plug-In . SVG Version: 6.00 Build 0)  -->
<svg version="1.1" xmlns="http://www.w3.org/2000/svg" xmlns:xlink="http://www.w3.org/1999/xlink" x="0px" y="0px"
	 viewBox="0 0 640 360" enable-background="new 0 0 640 360" xml:space="preserve">
<g id="Ebene_1">
	<g>
		<path fill="#616568" d="M385.3,110.3L385.3,110.3c0-7.4,5.6-13.5,13.5-13.5c4.8,0,7.9,1.6,10.3,4.3l-4.5,4.8
			c-1.6-1.7-3.3-2.8-5.9-2.8c-3.6,0-6.2,3.2-6.2,7v0.1c0,3.9,2.5,7.1,6.5,7.1c2.4,0,4.1-1.1,5.9-2.7l4.3,4.3
			c-2.5,2.7-5.4,4.7-10.5,4.7C391,123.6,385.3,117.6,385.3,110.3z"/>
		<path fill="#616568" d="M411.4,110.3L411.4,110.3c0-7.5,6-13.5,14-13.5c8,0,13.9,5.9,13.9,13.3v0.1c0,7.4-6,13.4-14,13.4
			C417.3,123.6,411.4,117.7,411.4,110.3z M432,110.3L432,110.3c0-3.9-2.7-7.2-6.8-7.2c-4.2,0-6.7,3.2-6.7,7v0.1
			c0,3.8,2.7,7.1,6.8,7.1C429.5,117.3,432,114.1,432,110.3z"/>
		<path fill="#616568" d="M444.2,97.3h7.3v3.6c1.7-2.2,3.8-4.1,7.5-4.1c5.5,0,8.7,3.6,8.7,9.6V123h-7.3v-14.4c0-3.5-1.6-5.2-4.4-5.2
			c-2.8,0-4.6,1.8-4.6,5.2V123h-7.3V97.3z"/>
		<path fill="#616568" d="M474,97.3h7.3v3.6c1.7-2.2,3.8-4.1,7.5-4.1c5.5,0,8.7,3.6,8.7,9.6V123h-7.3v-14.4c0-3.5-1.6-5.2-4.4-5.2
			c-2.8,0-4.6,1.8-4.6,5.2V123H474V97.3z"/>
		<path fill="#616568" d="M502.5,110.3L502.5,110.3c0-7.4,5.2-13.5,12.7-13.5c8.6,0,12.5,6.7,12.5,14c0,0.6,0,1.2-0.1,1.9h-17.9
			c0.7,3.3,3,5,6.3,5c2.4,0,4.2-0.8,6.2-2.6l4.2,3.7c-2.4,3-5.9,4.8-10.5,4.8C508.2,123.6,502.5,118.2,502.5,110.3z M520.6,108.1
			c-0.4-3.3-2.4-5.5-5.4-5.5c-3,0-5,2.2-5.6,5.5H520.6z"/>
		<path fill="#616568" d="M531.4,110.3L531.4,110.3c0-7.4,5.6-13.5,13.5-13.5c4.8,0,7.9,1.6,10.3,4.3l-4.5,4.8
			c-1.6-1.7-3.3-2.8-5.9-2.8c-3.6,0-6.2,3.2-6.2,7v0.1c0,3.9,2.5,7.1,6.5,7.1c2.4,0,4.1-1.1,5.9-2.7l4.3,4.3
			c-2.5,2.7-5.4,4.7-10.5,4.7C537.1,123.6,531.4,117.6,531.4,110.3z"/>
		<path fill="#616568" d="M561.2,115.7v-12.2h-3.1v-6.2h3.1v-6.6h7.3v6.6h6v6.2h-6v11c0,1.7,0.7,2.5,2.4,2.5c1.3,0,2.5-0.3,3.6-0.9
			v5.9c-1.5,0.9-3.3,1.5-5.8,1.5C564.3,123.4,561.2,121.7,561.2,115.7z"/>
	</g>
	<g>
		<path fill="#616568" d="M75.2,85.9l0.4,2.1L71,88.8l-3.8-21.6l4.5-0.8l1.4,8c0.8-1.7,2.1-3,4.5-3.4c3.7-0.7,7.7,1.6,8.7,6.9l0,0.1
			c0.9,5.3-2,8.8-5.8,9.5C78.1,87.8,76.5,87,75.2,85.9z M81.8,78.7L81.8,78.7c-0.5-2.7-2.6-4.1-4.7-3.8c-2.1,0.4-3.5,2.4-3.1,5
			l0,0.1c0.5,2.6,2.5,4.1,4.6,3.7S82.3,81.4,81.8,78.7z"/>
		<path fill="#616568" d="M88.8,77.5L88.8,77.5c-0.8-4.6,1.8-8.9,6.4-9.7c5.3-0.9,8.4,2.7,9.2,7.2c0.1,0.4,0.1,0.8,0.1,1.2l-11,1.9
			c0.8,2,2.4,2.8,4.4,2.4c1.5-0.3,2.5-0.9,3.6-2.3l3,1.8c-1.2,2.1-3.1,3.6-5.9,4.1C93.8,85.1,89.6,82.4,88.8,77.5z M99.7,74.3
			c-0.6-2-2-3.1-3.9-2.8c-1.9,0.3-2.8,1.9-2.8,4L99.7,74.3z"/>
		<path fill="#616568" d="M106.8,74.4L106.8,74.4c-0.8-4.6,2-8.9,6.8-9.8c3-0.5,5,0.2,6.8,1.5l-2.2,3.4c-1.2-0.9-2.3-1.4-3.9-1.1
			c-2.2,0.4-3.5,2.7-3.1,5l0,0.1c0.4,2.4,2.3,4.1,4.8,3.7c1.5-0.3,2.4-1.1,3.3-2.3l3.1,2.2c-1.2,2-2.8,3.5-6,4
			C111.7,81.9,107.6,78.9,106.8,74.4z"/>
		<path fill="#616568" d="M123,71.5L123,71.5c-0.8-4.6,2.2-8.9,7.1-9.8c4.9-0.9,9.2,2.1,10,6.7l0,0.1c0.8,4.5-2.2,8.9-7.1,9.8
			C128.1,79.1,123.8,76.1,123,71.5z M135.7,69.3L135.7,69.3c-0.4-2.4-2.5-4.1-4.9-3.7c-2.6,0.5-3.8,2.7-3.3,5l0,0.1
			c0.4,2.3,2.5,4.1,4.9,3.6C134.9,73.9,136.1,71.6,135.7,69.3z"/>
		<path fill="#616568" d="M141.9,59.9l4.5-0.8l0.4,2.2c0.8-1.5,1.9-3,4.2-3.4c2.1-0.4,3.8,0.3,4.9,1.7c1.1-1.9,2.6-3,4.8-3.4
			c3.3-0.6,5.7,1.1,6.4,4.9l1.8,10.3l-4.5,0.8l-1.6-8.8c-0.4-2.1-1.5-3.1-3.2-2.8c-1.7,0.3-2.5,1.6-2.2,3.7l1.6,8.8l-4.5,0.8
			l-1.6-8.8c-0.4-2.1-1.5-3.1-3.2-2.8c-1.7,0.3-2.5,1.6-2.2,3.7l1.6,8.8l-4.5,0.8L141.9,59.9z"/>
		<path fill="#616568" d="M170.7,63.1L170.7,63.1c-0.8-4.6,1.8-8.9,6.4-9.7c5.3-0.9,8.4,2.7,9.2,7.2c0.1,0.4,0.1,0.8,0.2,1.2
			l-11,1.9c0.8,2,2.4,2.8,4.4,2.4c1.5-0.3,2.5-0.9,3.6-2.3l3,1.8c-1.2,2.1-3.1,3.6-6,4.1C175.7,70.7,171.6,68,170.7,63.1z
			 M181.6,59.8c-0.6-2-2-3.1-3.9-2.8c-1.9,0.3-2.8,1.9-2.8,4L181.6,59.8z"/>
		<path fill="#616568" d="M198.1,61.7L198.1,61.7c-0.6-3.5,1.7-5.6,5.5-6.2c1.6-0.3,2.8-0.2,4,0l0-0.3c-0.3-1.9-1.7-2.7-3.9-2.3
			c-1.7,0.3-2.9,0.8-4.2,1.6l-1.7-3.2c1.6-1.1,3.2-1.9,5.9-2.4c2.5-0.4,4.3-0.1,5.7,0.8c1.4,1,2.2,2.6,2.6,4.8l1.6,9.2l-4.3,0.8
			l-0.3-1.7c-0.9,1.4-2.2,2.5-4.4,2.9C201.4,66.1,198.6,64.8,198.1,61.7z M208.2,58.8l-0.1-0.8c-0.8-0.2-1.9-0.3-3-0.1
			c-1.9,0.3-3,1.3-2.7,2.7l0,0.1c0.2,1.2,1.3,1.7,2.8,1.5C207.3,61.8,208.5,60.4,208.2,58.8z"/>
		<path fill="#616568" d="M224.8,49.3l-1.9,0.3l-0.7-3.7l1.9-0.3l-0.2-1c-0.3-1.7-0.1-3.1,0.6-4.1c0.7-1,1.8-1.6,3.4-1.9
			c1.4-0.2,2.4-0.2,3.3-0.1l0.7,3.7c-0.7-0.1-1.3-0.2-2.1,0c-1,0.2-1.5,0.8-1.3,2l0.1,0.6l3.6-0.6l0.6,3.7l-3.6,0.6l2.1,12l-4.5,0.8
			L224.8,49.3z"/>
		<path fill="#616568" d="M235.3,55.1L235.3,55.1c-0.6-3.5,1.7-5.6,5.5-6.2c1.6-0.3,2.8-0.2,4,0l0-0.3c-0.3-1.9-1.7-2.7-3.9-2.3
			c-1.7,0.3-2.9,0.8-4.2,1.6l-1.7-3.2c1.6-1.1,3.2-1.9,5.9-2.4c2.5-0.4,4.3-0.1,5.7,0.8c1.4,1,2.2,2.6,2.6,4.8l1.6,9.2l-4.3,0.8
			l-0.3-1.7c-0.9,1.4-2.2,2.5-4.4,2.9C238.6,59.5,235.9,58.2,235.3,55.1z M245.4,52.2l-0.1-0.8c-0.8-0.2-1.9-0.3-3-0.1
			c-1.9,0.3-3,1.3-2.7,2.7l0,0.1c0.2,1.2,1.3,1.7,2.8,1.5C244.5,55.3,245.7,53.9,245.4,52.2z"/>
		<path fill="#616568" d="M251.8,40.5l4.5-0.8l0.4,2.2c0.8-1.5,1.9-3,4.2-3.4c3.4-0.6,5.8,1.3,6.4,4.9l1.8,10.3l-4.5,0.8l-1.6-8.8
			c-0.4-2.1-1.6-3-3.3-2.7c-1.7,0.3-2.6,1.6-2.2,3.7l1.6,8.8l-4.5,0.8L251.8,40.5z"/>
	</g>
	<g>
		<path fill="#616568" d="M103.5,183.9l-3.9-0.8l1.7-7.8l3.9,0.8l0.5-2.1c0.8-3.7,2.3-6.2,4.4-7.6s4.9-1.7,8.3-1
			c3,0.6,4.9,1.4,6.6,2.4l-1.7,7.9c-1.3-0.8-2.5-1.4-4.1-1.7c-2.2-0.5-3.7,0.4-4.2,2.9l-0.3,1.3l7.7,1.6l-1.7,7.8l-7.6-1.6
			l-5.4,25.4l-9.5-2L103.5,183.9z"/>
		<path fill="#616568" d="M121.2,196.9l0-0.1c2-9.6,11.5-15.8,21.9-13.6c10.4,2.2,16.5,11.5,14.4,21.2l0,0.1
			c-2,9.6-11.5,15.8-21.9,13.6C125.2,215.9,119.2,206.5,121.2,196.9z M148.1,202.6l0-0.1c1.1-4.9-1.6-10-6.9-11.1
			c-5.4-1.2-9.6,2.3-10.6,7.3l0,0.1c-1.1,4.9,1.6,10,6.9,11.1C142.9,211.1,147.1,207.6,148.1,202.6z"/>
		<path fill="#616568" d="M170.2,176.9l9.5,2l-9.7,45.7l-9.5-2L170.2,176.9z"/>
		<path fill="#616568" d="M188.1,180.7l9.5,2l-9.7,45.7l-9.5-2L188.1,180.7z"/>
		<path fill="#616568" d="M197.8,213.2l0-0.1c2-9.6,11.5-15.8,21.9-13.6c10.4,2.2,16.5,11.5,14.4,21.2l0,0.1
			c-2,9.6-11.5,15.8-21.9,13.6C201.8,232.2,195.7,222.8,197.8,213.2z M224.7,218.9l0-0.1c1.1-4.9-1.6-10-6.9-11.1
			c-5.4-1.2-9.6,2.3-10.6,7.3l0,0.1c-1.1,4.9,1.6,10,6.9,11.1C219.5,227.3,223.7,223.8,224.7,218.9z"/>
		<path fill="#616568" d="M239.8,204.4l9.6,2l1.1,21.5l10.7-19.1l8.2,1.7l2,21.9l9.8-19.2l9.5,2l-17.6,31.6l-8.6-1.8l-2.1-22
			l-11,19.2l-8.5-1.8L239.8,204.4z"/>
		<path fill="#616568" d="M310.4,242.1l4.6-21.7l9.5,2l-4,18.7c-1,4.5,0.7,7.3,4.3,8c3.6,0.8,6.4-1.1,7.4-5.6l4-18.7l9.5,2
			l-7.1,33.6l-9.5-2l1-4.8c-2.8,2.4-6.2,4.3-11,3.3C311.9,255.4,308.8,249.8,310.4,242.1z"/>
		<path fill="#616568" d="M345,257.2l5.4-5.4c3.1,3.4,6.6,5.6,9.7,6.3c2.8,0.6,4.2-0.2,4.5-1.7l0-0.1c0.4-2.1-2.7-3.4-6.1-5.4
			c-4.4-2.4-9.3-5.7-7.9-12.2l0-0.1c1.5-6.8,7.8-9.5,14.5-8c4.3,0.9,8.6,3.3,11.7,6.5l-5,5.8c-2.9-2.6-6-4.5-8.4-5.1
			c-2.3-0.5-3.7,0.3-4,1.6l0,0.1c-0.4,1.9,2.6,3.4,6,5.5c4.4,2.6,9.3,6,8,12.1l0,0.1c-1.6,7.4-7.9,9.6-15.1,8.1
			C353.7,264.3,348.7,261.6,345,257.2z"/>
	</g>
	<g>
		<path fill="#616568" d="M519.9,244.1l1.7-3.9c2.3,1.2,4.6,1.6,6.4,1.3c1.6-0.2,2.2-0.9,2.1-1.8l0-0.1c-0.2-1.2-2.1-1.3-4.3-1.6
			c-2.8-0.4-6-1.1-6.6-4.8l0-0.1c-0.6-3.9,2.2-6.5,6-7.1c2.4-0.4,5.2,0,7.5,1.1l-1.5,4.1c-2.1-0.8-4-1.2-5.4-1
			c-1.3,0.2-1.9,0.9-1.8,1.6l0,0.1c0.2,1.1,2.1,1.3,4.2,1.7c2.8,0.5,6.1,1.3,6.7,4.7l0,0.1c0.7,4.2-2.2,6.7-6.3,7.3
			C525.8,246.1,522.7,245.7,519.9,244.1z"/>
		<path fill="#616568" d="M535.5,217.6l5.4-0.9l1.5,9.6c1-1.8,2.4-3.5,5.1-3.9c4.1-0.6,6.9,1.7,7.6,6l2,12.3l-5.4,0.9l-1.7-10.6
			c-0.4-2.6-1.8-3.7-3.9-3.4c-2.1,0.3-3.2,1.9-2.8,4.4l1.7,10.6l-5.4,0.9L535.5,217.6z"/>
		<path fill="#616568" d="M559.6,234.8L559.6,234.8c-0.7-4.2,2.2-6.7,6.7-7.4c1.9-0.3,3.4-0.2,4.8,0l-0.1-0.3
			c-0.4-2.2-1.9-3.3-4.6-2.8c-2.1,0.3-3.5,0.9-5.1,1.9l-2-3.9c2-1.3,3.9-2.2,7.2-2.7c3-0.5,5.2,0,6.8,1.1c1.6,1.2,2.6,3.2,3,5.8
			l1.8,11.1l-5.2,0.8l-0.3-2.1c-1.1,1.7-2.7,2.9-5.4,3.3C563.5,240.1,560.2,238.5,559.6,234.8z M571.9,231.6l-0.2-1
			c-1-0.3-2.2-0.4-3.6-0.2c-2.3,0.4-3.6,1.5-3.3,3.2l0,0.1c0.2,1.5,1.6,2.1,3.3,1.8C570.7,235.2,572.2,233.5,571.9,231.6z"/>
		<path fill="#616568" d="M579.7,217.7l5.4-0.9l0.6,3.8c0.7-2.8,2.2-4.8,5.4-5.2l0.9,5.7l-0.3,0c-3.6,0.6-5.5,3.1-4.7,7.6l1.1,7
			l-5.4,0.9L579.7,217.7z"/>
		<path fill="#616568" d="M594.8,225.1L594.8,225.1c-0.9-5.5,2.3-10.6,7.8-11.5c6.4-1,10.1,3.5,10.9,8.9c0.1,0.4,0.1,0.9,0.2,1.4
			l-13.3,2.1c0.9,2.4,2.8,3.4,5.2,3c1.8-0.3,3-1.1,4.3-2.7l3.5,2.2c-1.4,2.5-3.8,4.2-7.2,4.8C600.6,234.3,595.8,231,594.8,225.1z
			 M608,221.4c-0.7-2.4-2.4-3.8-4.7-3.4c-2.2,0.4-3.4,2.2-3.5,4.7L608,221.4z"/>
	</g>
	<g>
		<path fill="#616568" d="M276.7,310.7l1.3-1.7c1,0.8,2.1,1.3,3,1.4c0.8,0.1,1.2-0.2,1.2-0.6l0,0c0-0.6-0.9-0.9-1.9-1.3
			c-1.3-0.5-2.8-1.2-2.7-3.1l0,0c0.1-2,1.8-2.9,3.7-2.8c1.2,0.1,2.5,0.6,3.5,1.4l-1.2,1.8c-0.9-0.6-1.8-1-2.5-1.1
			c-0.7,0-1,0.2-1.1,0.6l0,0c0,0.5,0.9,0.9,1.9,1.3c1.3,0.5,2.8,1.3,2.7,3.1l0,0c-0.2,2.1-1.8,3-3.9,2.8
			C279.3,312.3,277.9,311.8,276.7,310.7z"/>
		<path fill="#616568" d="M286.6,309.2l0.4-6.2l2.7,0.2l-0.4,5.4c-0.1,1.3,0.5,2,1.5,2.1c1,0.1,1.8-0.5,1.8-1.8l0.4-5.4l2.7,0.2
			l-0.7,9.6l-2.7-0.2l0.1-1.4c-0.7,0.8-1.5,1.4-2.9,1.3C287.5,312.9,286.4,311.5,286.6,309.2z"/>
		<path fill="#616568" d="M300.5,312.4l-0.1,1.3l-2.7-0.2l0.9-13.1l2.7,0.2l-0.3,4.9c0.7-0.9,1.7-1.4,3.1-1.3c2.2,0.2,4.3,2.1,4,5.3
			l0,0c-0.2,3.2-2.5,4.8-4.7,4.7C301.9,313.9,301.1,313.2,300.5,312.4z M305.4,309.2L305.4,309.2c0.1-1.6-0.9-2.8-2.2-2.9
			c-1.3-0.1-2.4,0.9-2.5,2.5l0,0c-0.1,1.6,0.9,2.7,2.1,2.8C304.1,311.8,305.3,310.8,305.4,309.2z"/>
		<path fill="#616568" d="M309.1,313l1.3-1.7c1,0.8,2.1,1.3,3,1.4c0.8,0.1,1.2-0.2,1.2-0.6l0,0c0-0.6-0.9-0.9-1.9-1.3
			c-1.3-0.5-2.8-1.2-2.7-3.1l0,0c0.1-2,1.8-2.9,3.7-2.8c1.2,0.1,2.5,0.6,3.5,1.4l-1.2,1.8c-0.9-0.6-1.8-1-2.5-1.1
			c-0.7,0-1,0.2-1.1,0.6l0,0c0,0.5,0.9,0.9,1.9,1.3c1.3,0.5,2.8,1.3,2.7,3.1l0,0c-0.2,2.1-1.8,3-3.9,2.8
			C311.8,314.6,310.3,314.1,309.1,313z"/>
		<path fill="#616568" d="M318.6,310.2L318.6,310.2c0.2-2.8,2.5-4.9,5.4-4.7c1.8,0.1,2.9,0.8,3.7,1.9l-1.8,1.7
			c-0.6-0.7-1.1-1.1-2.1-1.2c-1.4-0.1-2.4,1-2.5,2.5l0,0c-0.1,1.5,0.8,2.7,2.3,2.8c0.9,0.1,1.6-0.3,2.3-0.9l1.5,1.7
			c-1,1-2.1,1.6-4.1,1.5C320.4,315.3,318.4,312.9,318.6,310.2z"/>
		<path fill="#616568" d="M329.6,306.1l2.7,0.2l-0.1,1.9c0.7-1.3,1.6-2.1,3.2-1.9l-0.2,2.9l-0.1,0c-1.8-0.1-3,0.9-3.2,3.2l-0.3,3.6
			l-2.7-0.2L329.6,306.1z"/>
		<path fill="#616568" d="M337,306.6l2.7,0.2l-0.7,9.6l-2.7-0.2L337,306.6z M337.2,303.1l2.9,0.2l-0.2,2.4l-2.9-0.2L337.2,303.1z"/>
		<path fill="#616568" d="M344.5,315.5l-0.1,1.3l-2.7-0.2l0.9-13.1l2.7,0.2l-0.3,4.9c0.7-0.8,1.7-1.4,3.1-1.3c2.2,0.2,4.3,2.1,4,5.3
			l0,0c-0.2,3.2-2.5,4.8-4.7,4.7C345.9,317.1,345.1,316.4,344.5,315.5z M349.4,312.3L349.4,312.3c0.1-1.6-0.9-2.8-2.2-2.9
			s-2.4,0.9-2.5,2.5l0,0c-0.1,1.6,0.9,2.7,2.1,2.8C348.1,314.9,349.3,313.9,349.4,312.3z"/>
		<path fill="#616568" d="M353.7,312.7L353.7,312.7c0.2-2.8,2.3-4.9,5.1-4.7c3.2,0.2,4.5,2.8,4.3,5.6c0,0.2-0.1,0.5-0.1,0.7
			l-6.7-0.5c0.2,1.3,1,2,2.2,2.1c0.9,0.1,1.6-0.2,2.4-0.8l1.5,1.5c-1,1-2.3,1.6-4.1,1.5C355.5,317.8,353.5,315.6,353.7,312.7z
			 M360.5,312.4c-0.1-1.2-0.7-2.1-1.9-2.2c-1.1-0.1-1.9,0.7-2.2,1.9L360.5,312.4z"/>
	</g>
	<g>
		<path fill="#616568" d="M482,44.8L482,44.8c-0.6-4,1.9-7.7,6.1-8.3c2.5-0.4,4.1,0,5.7,1l-1.6,2.6c-1.2-0.7-2.2-1.1-3.8-0.8
			c-2.2,0.4-3.7,2.6-3.3,4.9l0,0c0.4,2.5,2.4,4.1,4.9,3.7c1.1-0.2,2.1-0.6,2.7-1.3l-0.3-2l-3.1,0.5l-0.4-2.6l6-1l1,6
			c-1.2,1.4-3,2.7-5.6,3.1C486.1,51.4,482.6,48.9,482,44.8z"/>
		<path fill="#616568" d="M497.3,35.2l3-0.5l2.2,13.8l-3,0.5L497.3,35.2z"/>
		<path fill="#616568" d="M503.8,34.2l10.5-1.7l0.4,2.8l-7.5,1.2l0.5,2.9l6.6-1l0.4,2.8l-6.6,1l0.8,5.4l-3,0.5L503.8,34.2z"/>
	</g>
	<g>
		<path fill="#616568" d="M52.3,268.2l3.9-0.6l0.3,2c0.7-1.3,1.7-2.5,3.7-2.8c3-0.5,5,1.2,5.5,4.4l1.4,8.9l-3.9,0.6l-1.2-7.7
			c-0.3-1.8-1.3-2.7-2.8-2.4s-2.3,1.3-2,3.2l1.2,7.7l-3.9,0.6L52.3,268.2z"/>
		<path fill="#616568" d="M68.8,272.7L68.8,272.7c-0.6-4,1.7-7.7,5.7-8.3c4.6-0.7,7.3,2.5,7.9,6.4c0,0.3,0.1,0.7,0.1,1l-9.6,1.5
			c0.7,1.7,2,2.4,3.8,2.2c1.3-0.2,2.2-0.8,3.1-1.9l2.5,1.6c-1,1.8-2.7,3.1-5.2,3.5C73,279.3,69.4,276.9,68.8,272.7z M78.3,270
			c-0.5-1.7-1.7-2.7-3.4-2.5c-1.6,0.3-2.5,1.6-2.5,3.4L78.3,270z"/>
		<path fill="#616568" d="M82.4,263.4l4-0.6l3.5,8l1.3-8.8l3.4-0.5l4,8l0.9-8.7l3.9-0.6l-2.1,14.5l-3.5,0.6l-4-8l-1.4,8.9l-3.5,0.6
			L82.4,263.4z"/>
		<path fill="#616568" d="M106.1,271.9l1.3-2.8c1.7,0.8,3.3,1.2,4.6,1c1.1-0.2,1.6-0.7,1.5-1.3l0-0.1c-0.1-0.8-1.5-0.9-3.1-1.1
			c-2-0.3-4.3-0.8-4.8-3.5l0-0.1c-0.4-2.8,1.6-4.7,4.3-5.2c1.7-0.3,3.7,0,5.4,0.8l-1.1,2.9c-1.5-0.6-2.9-0.9-3.9-0.7
			c-1,0.2-1.4,0.6-1.3,1.2l0,0.1c0.1,0.8,1.5,0.9,3.1,1.2c2,0.3,4.4,0.9,4.8,3.4l0,0.1c0.5,3.1-1.6,4.8-4.6,5.3
			C110.4,273.4,108.1,273.1,106.1,271.9z"/>
	</g>
	<g>
		<g>
			<path fill="#616568" d="M29.7,203.2l-0.8-2.9l1.9-0.5l0.8,2.9l2.9-0.8l0.5,1.9l-2.9,0.8l0.8,2.9l-1.9,0.5l-0.8-2.9l-2.9,0.8
				l-0.5-1.9L29.7,203.2z M34.1,208.3l-0.8-2.9l2.9-0.8l-0.8-2.9l6.8-1.8l2.3,1.5l3.1-0.8c1.1-0.3,2.2,0.4,2.4,1.4l3.1,11.6
				c0.3,1.1-0.4,2.2-1.4,2.4l-15.5,4.1c-1.1,0.3-2.2-0.4-2.4-1.4l-2.6-9.7L34.1,208.3z M43.2,215.1c2.7-0.7,4.2-3.5,3.5-6.1
				s-3.5-4.2-6.1-3.5c-2.7,0.7-4.2,3.5-3.5,6.1C37.8,214.3,40.6,215.9,43.2,215.1z M38.8,211.1c0.5,1.7,2.2,2.7,3.9,2.3
				c1.7-0.5,2.7-2.2,2.3-3.9c-0.5-1.7-2.2-2.7-3.9-2.3C39.4,207.7,38.4,209.4,38.8,211.1z"/>
		</g>
	</g>
	<g>
		<path fill="#616568" d="M502.4,160.1l-22.8,7.4c-1.6,0.5-2.4,2.2-1.9,3.8l8.3,25.7l3.9-7.6l20-6.5c1.6-0.5,2.4-2.2,1.9-3.8
			l-5.6-17.1C505.7,160.4,504,159.6,502.4,160.1z"/>
	</g>
	<g>
		<path fill="#616568" d="M589,63.5l10.4,6.3c1.5,0.9,3.4-0.4,3-2.2l-2.7-11.8c-0.2-0.7,0.1-1.5,0.6-2l9.2-7.9
			c1.3-1.2,0.6-3.4-1.1-3.5l-12-1c-0.7-0.1-1.4-0.5-1.7-1.2l-4.7-11.1c-0.7-1.6-3-1.6-3.7,0l-4.7,11.1c-0.3,0.7-0.9,1.1-1.7,1.2
			l-12,1c-1.8,0.1-2.5,2.3-1.1,3.5l9.2,7.9c0.6,0.5,0.8,1.2,0.6,2l-2.7,11.8c-0.4,1.7,1.5,3.1,3,2.2l10.4-6.3
			C587.6,63.2,588.4,63.2,589,63.5z"/>
	</g>
	<g>
		<path fill="#616568" d="M31.6,311.6c1.8-1.8,4.6-1.8,6.4,0l4.1,4.1l2-2l-4.1-4.1c-2.9-2.9-7.5-2.9-10.4,0c-2.9,2.9-2.9,7.5,0,10.4
			l4.1,4.1l2-2l-4.1-4.1C29.8,316.3,29.8,313.4,31.6,311.6z M34.8,316.9l8.3,8.3l2.1-2.1l-8.3-8.3L34.8,316.9z M50.4,320l-4.1-4.1
			l-2,2l4.1,4.1c1.8,1.8,1.8,4.6,0,6.4c-1.8,1.8-4.6,1.8-6.4,0l-4.1-4.1l-2,2l4.1,4.1c2.9,2.9,7.5,2.9,10.4,0
			C53.2,327.5,53.2,322.9,50.4,320z"/>
	</g>
	<g>
		<path fill="#616568" d="M38,24c-8.3,0-15,6.7-15,15s6.7,15,15,15c8.3,0,15-6.7,15-15S46.3,24,38,24z M48.4,33H44
			c-0.5-1.9-1.2-3.7-2.1-5.3C44.6,28.6,46.9,30.5,48.4,33z M38,27.1c1.2,1.8,2.2,3.8,2.9,5.9h-5.7C35.8,30.9,36.8,28.9,38,27.1z
			 M26.4,42c-0.2-1-0.4-2-0.4-3s0.1-2,0.4-3h5.1c-0.1,1-0.2,2-0.2,3s0.1,2,0.2,3H26.4z M27.6,45H32c0.5,1.9,1.2,3.7,2.1,5.3
			C31.4,49.4,29.1,47.5,27.6,45z M32,33h-4.4c1.4-2.5,3.7-4.4,6.5-5.3C33.2,29.3,32.5,31.1,32,33z M38,50.9
			c-1.2-1.8-2.2-3.8-2.9-5.9h5.7C40.2,47.1,39.2,49.1,38,50.9z M41.5,42h-7c-0.1-1-0.2-2-0.2-3s0.1-2,0.2-3h7c0.1,1,0.2,2,0.2,3
			S41.6,41,41.5,42z M41.9,50.3c0.9-1.7,1.6-3.5,2.1-5.3h4.4C46.9,47.5,44.6,49.4,41.9,50.3z M44.5,42c0.1-1,0.2-2,0.2-3
			s-0.1-2-0.2-3h5.1c0.2,1,0.4,2,0.4,3s-0.2,2-0.4,3H44.5z"/>
	</g>
	<g>
		<path fill="#616568" d="M517,319c6.6,0,12-5.4,12-12s-5.4-12-12-12s-12,5.4-12,12S510.4,319,517,319z M490,313v-9h-6v9h-9v6h9v9h6
			v-9h9v-6H490z M517,325c-8,0-24,4-24,12v6h48v-6C541,329,525,325,517,325z"/>
	</g>
	<g>
		<path fill="#616568" d="M418,59c3.3,0,6-2.7,6-6s-2.7-6-6-6s-6,2.7-6,6S414.7,59,418,59z M418,62c-4,0-12,2-12,6v3h24v-3
			C430,64,422,62,418,62z"/>
	</g>
	<g>
		<path fill="#616568" d="M347.8,43.6l3.9-18.3c0.3-1.4-0.6-2.9-2.1-3.2l-18.3-3.9c-1.4-0.3-2.9,0.6-3.2,2.1l-3.9,18.3
			c-0.3,1.4,0.6,2.9,2.1,3.2l18.3,3.9C346.1,46,347.5,45.1,347.8,43.6z M333,33l2.4,4.6l5.8-4.9l4.2,9.1l-18.3-3.9L333,33z"/>
	</g>
	<g>
		<path fill="#616568" d="M407.4,326.4l9.9-24.7c0.3-0.8-0.5-1.6-1.3-1.3l-24.7,9.9c-0.7,0.3-0.8,1.1-0.3,1.6l6.2,6.2l6.2-5.2
			c0.9-0.8,2.2,0.5,1.4,1.4l-5.2,6.2l6.2,6.2C406.3,327.3,407.2,327.1,407.4,326.4z"/>
	</g>
	<g>
		<path fill="#616568" d="M438,244.2c-1.5,0-2.9,0.6-3.9,1.5l-14.3-8.3c0.1-0.5,0.2-0.9,0.2-1.4c0-0.5-0.1-0.9-0.2-1.4l14.1-8.2
			c1.1,1,2.5,1.6,4.1,1.6c3.3,0,6-2.7,6-6c0-3.3-2.7-6-6-6s-6,2.7-6,6c0,0.5,0.1,0.9,0.2,1.4l-14.1,8.2c-1.1-1-2.5-1.6-4.1-1.6
			c-3.3,0-6,2.7-6,6c0,3.3,2.7,6,6,6c1.6,0,3-0.6,4.1-1.6l14.2,8.3c-0.1,0.4-0.2,0.9-0.2,1.3c0,3.2,2.6,5.8,5.8,5.8s5.8-2.6,5.8-5.8
			S441.2,244.2,438,244.2z"/>
	</g>
	<g>
		<circle fill="#616568" cx="187.3" cy="272.6" r="6"/>
	</g>
	<g>
		<path fill="#616568" d="M168.3,291.6l-16.5-9.1l-0.2-4l16.5,9.1l11.8-8.3c-1.5-1.6-2.5-3.8-2.6-6.2l-26,1.4
			c-2.2,0.1-3.9,2-3.8,4.2l1.2,24c0.1,2.2,2,3.9,4.2,3.8l32-1.7c2.2-0.1,3.9-2,3.8-4.2l-0.9-18c-1.8,0.1-3.6-0.3-5.1-1.1
			L168.3,291.6z"/>
	</g>
	<g>
		<path fill="#616568" d="M366,182h4v-12h-4V182z M388,171c0-1.1-0.9-2-2-2h-6.3l1-4.6l0-0.3c0-0.4-0.2-0.8-0.4-1.1l-1.1-1.1
			l-6.6,6.6c-0.4,0.4-0.6,0.9-0.6,1.4v10c0,1.1,0.9,2,2,2h9c0.8,0,1.5-0.5,1.8-1.2l3-7.1c0.1-0.2,0.1-0.5,0.1-0.7V171L388,171
			L388,171z"/>
	</g>
	<g>
		<path fill="#616568" d="M577,282.8c0-4.6,3.7-8.2,8.2-8.2H601c3.3,0,6,2.7,6,6s-2.7,6-6,6h-12.8c-2.1,0-3.8-1.7-3.8-3.8
			s1.7-3.8,3.8-3.8h11.2v3h-11.4c-0.8,0-0.8,1.5,0,1.5H601c1.7,0,3-1.4,3-3s-1.3-3-3-3h-15.8c-2.9,0-5.2,2.4-5.2,5.2
			s2.4,5.2,5.2,5.2h14.2v3h-14.2C580.7,291,577,287.3,577,282.8z"/>
	</g>
	<g>
		<path fill="#616568" d="M73.8,137.2l-9.8-2.1c-1.1-0.2-2.1,0.5-2.4,1.5l-3.3,15.6l7.5-1.5l6.2,4.4l3.3-15.7
			C75.5,138.5,74.8,137.5,73.8,137.2z"/>
	</g>
	<g>
		<path fill="#616568" d="M313.8,120.9c-1.6,1.5-4,1.5-5.5,0c-5.5-5.3-17.2-17.3-17.2-23.1c0-6.2,4.8-11,11-11c3.5,0,6.8,1.6,9,4.2
			c2.2-2.6,5.5-4.2,9-4.2c6.2,0,11,4.8,11,11C331,103.6,319.3,115.6,313.8,120.9z"/>
	</g>
	<g>
		<circle fill="#616568" cx="237.7" cy="338" r="2.5"/>
	</g>
	<g>
		<path fill="#616568" d="M229.8,324.5l1.2,3.1c7.6-2.9,16.1,0.9,19,8.5l3.1-1.2C249.5,325.5,239.1,320.9,229.8,324.5z M232.1,330.6
			l1.2,3.1c4.2-1.6,8.9,0.5,10.6,4.7l3.1-1.2C244.7,331.3,238,328.3,232.1,330.6z"/>
	</g>
	<g>
		<path fill="#616568" d="M257,148c-8.3,0-15,6.7-15,15c0,8.3,6.7,15,15,15s15-6.7,15-15C272,154.7,265.3,148,257,148z M251.8,155.5
			c1.2,0,2.2,1.3,2.2,3c0,1.7-1,3-2.2,3s-2.2-1.3-2.2-3C249.5,156.8,250.5,155.5,251.8,155.5z M257,172.8c-2.6,0-5.7-2-7.6-4.3
			c-0.8-1-0.1-2.5,1.2-2.5h12.9c1.3,0,2,1.5,1.2,2.5C262.7,170.7,259.6,172.8,257,172.8z M262.2,161.5c-1.2,0-2.2-1.3-2.2-3
			c0-1.7,1-3,2.2-3s2.2,1.3,2.2,3C264.5,160.2,263.5,161.5,262.2,161.5z"/>
	</g>
	<g>
		<path fill="#616568" d="M604,152.9c-0.6,0-1.1,0.5-1.1,1.1s0.5,1.1,1.1,1.1s1.1-0.5,1.1-1.1S604.6,152.9,604,152.9z M604,144
			c-5.5,0-10,4.5-10,10s4.5,10,10,10s10-4.5,10-10S609.5,144,604,144z M606.2,156.2L598,160l3.8-8.2l8.2-3.8L606.2,156.2z"/>
	</g>
	<g>
		<path fill="#616568" d="M180.4,105.8l9.7-11.8c0.5-0.6,1.5-0.4,1.7,0.4l9.3,34.9c0.2,0.8-0.6,1.5-1.3,1.2l-14.3-5.4l-3.9,1
			l0.5,1.9c0.3,1.1-0.3,2.2-1.4,2.4l-1.9,0.5l2.1,7.7c0.3,1.1-0.3,2.2-1.4,2.4l-3.9,1c-1.1,0.3-2.2-0.3-2.4-1.4l-3.1-11.6l-5.8,1.6
			l-4.9-2.8l-3.1-11.6l2.8-4.9L180.4,105.8z"/>
	</g>
</g>
<g id="Ebene_2" display="none">
</g>
</svg>
