<?xml version="1.0" encoding="utf-8"?><!DOCTYPE svg PUBLIC "-//W3C//DTD SVG 1.1//EN" "http://www.w3.org/Graphics/SVG/1.1/DTD/svg11.dtd"><svg xmlns="http://www.w3.org/2000/svg" xml:space="preserve" xmlns:xlink="http://www.w3.org/1999/xlink" width="1006.25" height="1023.2135416667" viewBox="0 0 1006.25 1023.2135416667">
<rect width="592.84895833333" height="592.84895833333" fill="#ffffff" x="209.63541666667" y="209.63541666667" />
<g transform="scale(41.927083333333)" fill="#000000"><path d="M17.6,0H6.4c-1,0-1.8,0.8-1.8,1.8v20.4c0,1,0.8,1.8,1.8,1.8h11.1c1,0,1.8-0.8,1.8-1.8V1.8C19.4,0.8,18.6,0,17.6,0z M11.2,2.3h2.7c0.1,0,0.2,0.1,0.2,0.2S14,2.7,13.9,2.7h-2.7c-0.1,0-0.2-0.1-0.2-0.2S11.1,2.3,11.2,2.3z M10.1,2.3 c0.1,0,0.2,0.1,0.2,0.2s-0.1,0.2-0.2,0.2c-0.1,0-0.2-0.1-0.2-0.2S10,2.3,10.1,2.3z M19,19H5V5h14V19z"/></g>
<g fill="#000000">
<g transform="translate(450.625,240.625) scale(3.605)"><rect width="6" height="6"/></g>
<g transform="translate(576.625,240.625) scale(3.605)"><rect width="6" height="6"/></g>
<g transform="translate(450.625,261.625) scale(3.605)"><rect width="6" height="6"/></g>
<g transform="translate(492.625,261.625) scale(3.605)"><rect width="6" height="6"/></g>
<g transform="translate(534.625,261.625) scale(3.605)"><rect width="6" height="6"/></g>
<g transform="translate(555.625,261.625) scale(3.605)"><rect width="6" height="6"/></g>
<g transform="translate(408.625,282.625) scale(3.605)"><rect width="6" height="6"/></g>
<g transform="translate(450.625,282.625) scale(3.605)"><rect width="6" height="6"/></g>
<g transform="translate(471.625,282.625) scale(3.605)"><rect width="6" height="6"/></g>
<g transform="translate(534.625,282.625) scale(3.605)"><rect width="6" height="6"/></g>
<g transform="translate(555.625,282.625) scale(3.605)"><rect width="6" height="6"/></g>
<g transform="translate(576.625,282.625) scale(3.605)"><rect width="6" height="6"/></g>
<g transform="translate(408.625,303.625) scale(3.605)"><rect width="6" height="6"/></g>
<g transform="translate(471.625,303.625) scale(3.605)"><rect width="6" height="6"/></g>
<g transform="translate(492.625,303.625) scale(3.605)"><rect width="6" height="6"/></g>
<g transform="translate(513.625,303.625) scale(3.605)"><rect width="6" height="6"/></g>
<g transform="translate(408.625,324.625) scale(3.605)"><rect width="6" height="6"/></g>
<g transform="translate(450.625,324.625) scale(3.605)"><rect width="6" height="6"/></g>
<g transform="translate(471.625,324.625) scale(3.605)"><rect width="6" height="6"/></g>
<g transform="translate(513.625,324.625) scale(3.605)"><rect width="6" height="6"/></g>
<g transform="translate(576.625,324.625) scale(3.605)"><rect width="6" height="6"/></g>
<g transform="translate(408.625,345.625) scale(3.605)"><rect width="6" height="6"/></g>
<g transform="translate(492.625,345.625) scale(3.605)"><rect width="6" height="6"/></g>
<g transform="translate(513.625,345.625) scale(3.605)"><rect width="6" height="6"/></g>
<g transform="translate(534.625,345.625) scale(3.605)"><rect width="6" height="6"/></g>
<g transform="translate(555.625,345.625) scale(3.605)"><rect width="6" height="6"/></g>
<g transform="translate(576.625,345.625) scale(3.605)"><rect width="6" height="6"/></g>
<g transform="translate(408.625,366.625) scale(3.605)"><rect width="6" height="6"/></g>
<g transform="translate(450.625,366.625) scale(3.605)"><rect width="6" height="6"/></g>
<g transform="translate(492.625,366.625) scale(3.605)"><rect width="6" height="6"/></g>
<g transform="translate(534.625,366.625) scale(3.605)"><rect width="6" height="6"/></g>
<g transform="translate(576.625,366.625) scale(3.605)"><rect width="6" height="6"/></g>
<g transform="translate(408.625,387.625) scale(3.605)"><rect width="6" height="6"/></g>
<g transform="translate(492.625,387.625) scale(3.605)"><rect width="6" height="6"/></g>
<g transform="translate(576.625,387.625) scale(3.605)"><rect width="6" height="6"/></g>
<g transform="translate(240.625,408.625) scale(3.605)"><rect width="6" height="6"/></g>
<g transform="translate(282.625,408.625) scale(3.605)"><rect width="6" height="6"/></g>
<g transform="translate(303.625,408.625) scale(3.605)"><rect width="6" height="6"/></g>
<g transform="translate(324.625,408.625) scale(3.605)"><rect width="6" height="6"/></g>
<g transform="translate(345.625,408.625) scale(3.605)"><rect width="6" height="6"/></g>
<g transform="translate(366.625,408.625) scale(3.605)"><rect width="6" height="6"/></g>
<g transform="translate(429.625,408.625) scale(3.605)"><rect width="6" height="6"/></g>
<g transform="translate(450.625,408.625) scale(3.605)"><rect width="6" height="6"/></g>
<g transform="translate(471.625,408.625) scale(3.605)"><rect width="6" height="6"/></g>
<g transform="translate(492.625,408.625) scale(3.605)"><rect width="6" height="6"/></g>
<g transform="translate(513.625,408.625) scale(3.605)"><rect width="6" height="6"/></g>
<g transform="translate(534.625,408.625) scale(3.605)"><rect width="6" height="6"/></g>
<g transform="translate(555.625,408.625) scale(3.605)"><rect width="6" height="6"/></g>
<g transform="translate(618.625,408.625) scale(3.605)"><rect width="6" height="6"/></g>
<g transform="translate(639.625,408.625) scale(3.605)"><rect width="6" height="6"/></g>
<g transform="translate(660.625,408.625) scale(3.605)"><rect width="6" height="6"/></g>
<g transform="translate(681.625,408.625) scale(3.605)"><rect width="6" height="6"/></g>
<g transform="translate(702.625,408.625) scale(3.605)"><rect width="6" height="6"/></g>
<g transform="translate(261.625,429.625) scale(3.605)"><rect width="6" height="6"/></g>
<g transform="translate(387.625,429.625) scale(3.605)"><rect width="6" height="6"/></g>
<g transform="translate(408.625,429.625) scale(3.605)"><rect width="6" height="6"/></g>
<g transform="translate(471.625,429.625) scale(3.605)"><rect width="6" height="6"/></g>
<g transform="translate(576.625,429.625) scale(3.605)"><rect width="6" height="6"/></g>
<g transform="translate(597.625,429.625) scale(3.605)"><rect width="6" height="6"/></g>
<g transform="translate(639.625,429.625) scale(3.605)"><rect width="6" height="6"/></g>
<g transform="translate(723.625,429.625) scale(3.605)"><rect width="6" height="6"/></g>
<g transform="translate(240.625,450.625) scale(3.605)"><rect width="6" height="6"/></g>
<g transform="translate(261.625,450.625) scale(3.605)"><rect width="6" height="6"/></g>
<g transform="translate(282.625,450.625) scale(3.605)"><rect width="6" height="6"/></g>
<g transform="translate(303.625,450.625) scale(3.605)"><rect width="6" height="6"/></g>
<g transform="translate(324.625,450.625) scale(3.605)"><rect width="6" height="6"/></g>
<g transform="translate(366.625,450.625) scale(3.605)"><rect width="6" height="6"/></g>
<g transform="translate(387.625,450.625) scale(3.605)"><rect width="6" height="6"/></g>
<g transform="translate(408.625,450.625) scale(3.605)"><rect width="6" height="6"/></g>
<g transform="translate(471.625,450.625) scale(3.605)"><rect width="6" height="6"/></g>
<g transform="translate(513.625,450.625) scale(3.605)"><rect width="6" height="6"/></g>
<g transform="translate(555.625,450.625) scale(3.605)"><rect width="6" height="6"/></g>
<g transform="translate(576.625,450.625) scale(3.605)"><rect width="6" height="6"/></g>
<g transform="translate(597.625,450.625) scale(3.605)"><rect width="6" height="6"/></g>
<g transform="translate(618.625,450.625) scale(3.605)"><rect width="6" height="6"/></g>
<g transform="translate(639.625,450.625) scale(3.605)"><rect width="6" height="6"/></g>
<g transform="translate(660.625,450.625) scale(3.605)"><rect width="6" height="6"/></g>
<g transform="translate(681.625,450.625) scale(3.605)"><rect width="6" height="6"/></g>
<g transform="translate(723.625,450.625) scale(3.605)"><rect width="6" height="6"/></g>
<g transform="translate(744.625,450.625) scale(3.605)"><rect width="6" height="6"/></g>
<g transform="translate(261.625,471.625) scale(3.605)"><rect width="6" height="6"/></g>
<g transform="translate(282.625,471.625) scale(3.605)"><rect width="6" height="6"/></g>
<g transform="translate(324.625,471.625) scale(3.605)"><rect width="6" height="6"/></g>
<g transform="translate(345.625,471.625) scale(3.605)"><rect width="6" height="6"/></g>
<g transform="translate(387.625,471.625) scale(3.605)"><rect width="6" height="6"/></g>
<g transform="translate(408.625,471.625) scale(3.605)"><rect width="6" height="6"/></g>
<g transform="translate(471.625,471.625) scale(3.605)"><rect width="6" height="6"/></g>
<g transform="translate(534.625,471.625) scale(3.605)"><rect width="6" height="6"/></g>
<g transform="translate(576.625,471.625) scale(3.605)"><rect width="6" height="6"/></g>
<g transform="translate(597.625,471.625) scale(3.605)"><rect width="6" height="6"/></g>
<g transform="translate(639.625,471.625) scale(3.605)"><rect width="6" height="6"/></g>
<g transform="translate(744.625,471.625) scale(3.605)"><rect width="6" height="6"/></g>
<g transform="translate(261.625,492.625) scale(3.605)"><rect width="6" height="6"/></g>
<g transform="translate(324.625,492.625) scale(3.605)"><rect width="6" height="6"/></g>
<g transform="translate(366.625,492.625) scale(3.605)"><rect width="6" height="6"/></g>
<g transform="translate(408.625,492.625) scale(3.605)"><rect width="6" height="6"/></g>
<g transform="translate(429.625,492.625) scale(3.605)"><rect width="6" height="6"/></g>
<g transform="translate(450.625,492.625) scale(3.605)"><rect width="6" height="6"/></g>
<g transform="translate(471.625,492.625) scale(3.605)"><rect width="6" height="6"/></g>
<g transform="translate(492.625,492.625) scale(3.605)"><rect width="6" height="6"/></g>
<g transform="translate(513.625,492.625) scale(3.605)"><rect width="6" height="6"/></g>
<g transform="translate(534.625,492.625) scale(3.605)"><rect width="6" height="6"/></g>
<g transform="translate(597.625,492.625) scale(3.605)"><rect width="6" height="6"/></g>
<g transform="translate(618.625,492.625) scale(3.605)"><rect width="6" height="6"/></g>
<g transform="translate(639.625,492.625) scale(3.605)"><rect width="6" height="6"/></g>
<g transform="translate(660.625,492.625) scale(3.605)"><rect width="6" height="6"/></g>
<g transform="translate(702.625,492.625) scale(3.605)"><rect width="6" height="6"/></g>
<g transform="translate(723.625,492.625) scale(3.605)"><rect width="6" height="6"/></g>
<g transform="translate(744.625,492.625) scale(3.605)"><rect width="6" height="6"/></g>
<g transform="translate(240.625,513.625) scale(3.605)"><rect width="6" height="6"/></g>
<g transform="translate(303.625,513.625) scale(3.605)"><rect width="6" height="6"/></g>
<g transform="translate(324.625,513.625) scale(3.605)"><rect width="6" height="6"/></g>
<g transform="translate(345.625,513.625) scale(3.605)"><rect width="6" height="6"/></g>
<g transform="translate(408.625,513.625) scale(3.605)"><rect width="6" height="6"/></g>
<g transform="translate(429.625,513.625) scale(3.605)"><rect width="6" height="6"/></g>
<g transform="translate(513.625,513.625) scale(3.605)"><rect width="6" height="6"/></g>
<g transform="translate(576.625,513.625) scale(3.605)"><rect width="6" height="6"/></g>
<g transform="translate(597.625,513.625) scale(3.605)"><rect width="6" height="6"/></g>
<g transform="translate(639.625,513.625) scale(3.605)"><rect width="6" height="6"/></g>
<g transform="translate(681.625,513.625) scale(3.605)"><rect width="6" height="6"/></g>
<g transform="translate(723.625,513.625) scale(3.605)"><rect width="6" height="6"/></g>
<g transform="translate(240.625,534.625) scale(3.605)"><rect width="6" height="6"/></g>
<g transform="translate(282.625,534.625) scale(3.605)"><rect width="6" height="6"/></g>
<g transform="translate(303.625,534.625) scale(3.605)"><rect width="6" height="6"/></g>
<g transform="translate(345.625,534.625) scale(3.605)"><rect width="6" height="6"/></g>
<g transform="translate(366.625,534.625) scale(3.605)"><rect width="6" height="6"/></g>
<g transform="translate(387.625,534.625) scale(3.605)"><rect width="6" height="6"/></g>
<g transform="translate(408.625,534.625) scale(3.605)"><rect width="6" height="6"/></g>
<g transform="translate(429.625,534.625) scale(3.605)"><rect width="6" height="6"/></g>
<g transform="translate(450.625,534.625) scale(3.605)"><rect width="6" height="6"/></g>
<g transform="translate(471.625,534.625) scale(3.605)"><rect width="6" height="6"/></g>
<g transform="translate(492.625,534.625) scale(3.605)"><rect width="6" height="6"/></g>
<g transform="translate(513.625,534.625) scale(3.605)"><rect width="6" height="6"/></g>
<g transform="translate(534.625,534.625) scale(3.605)"><rect width="6" height="6"/></g>
<g transform="translate(555.625,534.625) scale(3.605)"><rect width="6" height="6"/></g>
<g transform="translate(576.625,534.625) scale(3.605)"><rect width="6" height="6"/></g>
<g transform="translate(597.625,534.625) scale(3.605)"><rect width="6" height="6"/></g>
<g transform="translate(618.625,534.625) scale(3.605)"><rect width="6" height="6"/></g>
<g transform="translate(639.625,534.625) scale(3.605)"><rect width="6" height="6"/></g>
<g transform="translate(660.625,534.625) scale(3.605)"><rect width="6" height="6"/></g>
<g transform="translate(681.625,534.625) scale(3.605)"><rect width="6" height="6"/></g>
<g transform="translate(723.625,534.625) scale(3.605)"><rect width="6" height="6"/></g>
<g transform="translate(744.625,534.625) scale(3.605)"><rect width="6" height="6"/></g>
<g transform="translate(240.625,555.625) scale(3.605)"><rect width="6" height="6"/></g>
<g transform="translate(303.625,555.625) scale(3.605)"><rect width="6" height="6"/></g>
<g transform="translate(345.625,555.625) scale(3.605)"><rect width="6" height="6"/></g>
<g transform="translate(387.625,555.625) scale(3.605)"><rect width="6" height="6"/></g>
<g transform="translate(408.625,555.625) scale(3.605)"><rect width="6" height="6"/></g>
<g transform="translate(450.625,555.625) scale(3.605)"><rect width="6" height="6"/></g>
<g transform="translate(471.625,555.625) scale(3.605)"><rect width="6" height="6"/></g>
<g transform="translate(534.625,555.625) scale(3.605)"><rect width="6" height="6"/></g>
<g transform="translate(576.625,555.625) scale(3.605)"><rect width="6" height="6"/></g>
<g transform="translate(597.625,555.625) scale(3.605)"><rect width="6" height="6"/></g>
<g transform="translate(639.625,555.625) scale(3.605)"><rect width="6" height="6"/></g>
<g transform="translate(660.625,555.625) scale(3.605)"><rect width="6" height="6"/></g>
<g transform="translate(744.625,555.625) scale(3.605)"><rect width="6" height="6"/></g>
<g transform="translate(240.625,576.625) scale(3.605)"><rect width="6" height="6"/></g>
<g transform="translate(366.625,576.625) scale(3.605)"><rect width="6" height="6"/></g>
<g transform="translate(387.625,576.625) scale(3.605)"><rect width="6" height="6"/></g>
<g transform="translate(408.625,576.625) scale(3.605)"><rect width="6" height="6"/></g>
<g transform="translate(429.625,576.625) scale(3.605)"><rect width="6" height="6"/></g>
<g transform="translate(471.625,576.625) scale(3.605)"><rect width="6" height="6"/></g>
<g transform="translate(513.625,576.625) scale(3.605)"><rect width="6" height="6"/></g>
<g transform="translate(534.625,576.625) scale(3.605)"><rect width="6" height="6"/></g>
<g transform="translate(576.625,576.625) scale(3.605)"><rect width="6" height="6"/></g>
<g transform="translate(597.625,576.625) scale(3.605)"><rect width="6" height="6"/></g>
<g transform="translate(618.625,576.625) scale(3.605)"><rect width="6" height="6"/></g>
<g transform="translate(639.625,576.625) scale(3.605)"><rect width="6" height="6"/></g>
<g transform="translate(660.625,576.625) scale(3.605)"><rect width="6" height="6"/></g>
<g transform="translate(702.625,576.625) scale(3.605)"><rect width="6" height="6"/></g>
<g transform="translate(408.625,597.625) scale(3.605)"><rect width="6" height="6"/></g>
<g transform="translate(450.625,597.625) scale(3.605)"><rect width="6" height="6"/></g>
<g transform="translate(492.625,597.625) scale(3.605)"><rect width="6" height="6"/></g>
<g transform="translate(513.625,597.625) scale(3.605)"><rect width="6" height="6"/></g>
<g transform="translate(555.625,597.625) scale(3.605)"><rect width="6" height="6"/></g>
<g transform="translate(576.625,597.625) scale(3.605)"><rect width="6" height="6"/></g>
<g transform="translate(660.625,597.625) scale(3.605)"><rect width="6" height="6"/></g>
<g transform="translate(681.625,597.625) scale(3.605)"><rect width="6" height="6"/></g>
<g transform="translate(429.625,618.625) scale(3.605)"><rect width="6" height="6"/></g>
<g transform="translate(534.625,618.625) scale(3.605)"><rect width="6" height="6"/></g>
<g transform="translate(576.625,618.625) scale(3.605)"><rect width="6" height="6"/></g>
<g transform="translate(618.625,618.625) scale(3.605)"><rect width="6" height="6"/></g>
<g transform="translate(660.625,618.625) scale(3.605)"><rect width="6" height="6"/></g>
<g transform="translate(702.625,618.625) scale(3.605)"><rect width="6" height="6"/></g>
<g transform="translate(723.625,618.625) scale(3.605)"><rect width="6" height="6"/></g>
<g transform="translate(744.625,618.625) scale(3.605)"><rect width="6" height="6"/></g>
<g transform="translate(408.625,639.625) scale(3.605)"><rect width="6" height="6"/></g>
<g transform="translate(450.625,639.625) scale(3.605)"><rect width="6" height="6"/></g>
<g transform="translate(492.625,639.625) scale(3.605)"><rect width="6" height="6"/></g>
<g transform="translate(534.625,639.625) scale(3.605)"><rect width="6" height="6"/></g>
<g transform="translate(576.625,639.625) scale(3.605)"><rect width="6" height="6"/></g>
<g transform="translate(660.625,639.625) scale(3.605)"><rect width="6" height="6"/></g>
<g transform="translate(681.625,639.625) scale(3.605)"><rect width="6" height="6"/></g>
<g transform="translate(723.625,639.625) scale(3.605)"><rect width="6" height="6"/></g>
<g transform="translate(408.625,660.625) scale(3.605)"><rect width="6" height="6"/></g>
<g transform="translate(429.625,660.625) scale(3.605)"><rect width="6" height="6"/></g>
<g transform="translate(450.625,660.625) scale(3.605)"><rect width="6" height="6"/></g>
<g transform="translate(492.625,660.625) scale(3.605)"><rect width="6" height="6"/></g>
<g transform="translate(513.625,660.625) scale(3.605)"><rect width="6" height="6"/></g>
<g transform="translate(555.625,660.625) scale(3.605)"><rect width="6" height="6"/></g>
<g transform="translate(576.625,660.625) scale(3.605)"><rect width="6" height="6"/></g>
<g transform="translate(597.625,660.625) scale(3.605)"><rect width="6" height="6"/></g>
<g transform="translate(618.625,660.625) scale(3.605)"><rect width="6" height="6"/></g>
<g transform="translate(639.625,660.625) scale(3.605)"><rect width="6" height="6"/></g>
<g transform="translate(660.625,660.625) scale(3.605)"><rect width="6" height="6"/></g>
<g transform="translate(702.625,660.625) scale(3.605)"><rect width="6" height="6"/></g>
<g transform="translate(723.625,660.625) scale(3.605)"><rect width="6" height="6"/></g>
<g transform="translate(744.625,660.625) scale(3.605)"><rect width="6" height="6"/></g>
<g transform="translate(408.625,681.625) scale(3.605)"><rect width="6" height="6"/></g>
<g transform="translate(429.625,681.625) scale(3.605)"><rect width="6" height="6"/></g>
<g transform="translate(450.625,681.625) scale(3.605)"><rect width="6" height="6"/></g>
<g transform="translate(513.625,681.625) scale(3.605)"><rect width="6" height="6"/></g>
<g transform="translate(576.625,681.625) scale(3.605)"><rect width="6" height="6"/></g>
<g transform="translate(618.625,681.625) scale(3.605)"><rect width="6" height="6"/></g>
<g transform="translate(660.625,681.625) scale(3.605)"><rect width="6" height="6"/></g>
<g transform="translate(681.625,681.625) scale(3.605)"><rect width="6" height="6"/></g>
<g transform="translate(702.625,681.625) scale(3.605)"><rect width="6" height="6"/></g>
<g transform="translate(723.625,681.625) scale(3.605)"><rect width="6" height="6"/></g>
<g transform="translate(744.625,681.625) scale(3.605)"><rect width="6" height="6"/></g>
<g transform="translate(408.625,702.625) scale(3.605)"><rect width="6" height="6"/></g>
<g transform="translate(429.625,702.625) scale(3.605)"><rect width="6" height="6"/></g>
<g transform="translate(450.625,702.625) scale(3.605)"><rect width="6" height="6"/></g>
<g transform="translate(471.625,702.625) scale(3.605)"><rect width="6" height="6"/></g>
<g transform="translate(492.625,702.625) scale(3.605)"><rect width="6" height="6"/></g>
<g transform="translate(513.625,702.625) scale(3.605)"><rect width="6" height="6"/></g>
<g transform="translate(534.625,702.625) scale(3.605)"><rect width="6" height="6"/></g>
<g transform="translate(681.625,702.625) scale(3.605)"><rect width="6" height="6"/></g>
<g transform="translate(702.625,702.625) scale(3.605)"><rect width="6" height="6"/></g>
<g transform="translate(744.625,702.625) scale(3.605)"><rect width="6" height="6"/></g>
<g transform="translate(429.625,723.625) scale(3.605)"><rect width="6" height="6"/></g>
<g transform="translate(471.625,723.625) scale(3.605)"><rect width="6" height="6"/></g>
<g transform="translate(534.625,723.625) scale(3.605)"><rect width="6" height="6"/></g>
<g transform="translate(555.625,723.625) scale(3.605)"><rect width="6" height="6"/></g>
<g transform="translate(576.625,723.625) scale(3.605)"><rect width="6" height="6"/></g>
<g transform="translate(597.625,723.625) scale(3.605)"><rect width="6" height="6"/></g>
<g transform="translate(639.625,723.625) scale(3.605)"><rect width="6" height="6"/></g>
<g transform="translate(660.625,723.625) scale(3.605)"><rect width="6" height="6"/></g>
<g transform="translate(681.625,723.625) scale(3.605)"><rect width="6" height="6"/></g>
<g transform="translate(744.625,723.625) scale(3.605)"><rect width="6" height="6"/></g>
<g transform="translate(408.625,744.625) scale(3.605)"><rect width="6" height="6"/></g>
<g transform="translate(450.625,744.625) scale(3.605)"><rect width="6" height="6"/></g>
<g transform="translate(471.625,744.625) scale(3.605)"><rect width="6" height="6"/></g>
<g transform="translate(492.625,744.625) scale(3.605)"><rect width="6" height="6"/></g>
<g transform="translate(639.625,744.625) scale(3.605)"><rect width="6" height="6"/></g>
<g transform="translate(660.625,744.625) scale(3.605)"><rect width="6" height="6"/></g>
<g transform="translate(681.625,744.625) scale(3.605)"><rect width="6" height="6"/></g>
<g transform="translate(702.625,744.625) scale(3.605)"><rect width="6" height="6"/></g>
<g transform="translate(723.625,744.625) scale(3.605)"><rect width="6" height="6"/></g>
<g transform="translate(744.625,744.625) scale(3.605)"><rect width="6" height="6"/></g>
<g transform="translate(240.625,240.625)"><g transform="scale(10.5)"><path d="M0,0v14h14V0H0z M12,12H2V2h10V12z"/></g></g>
<g transform="translate(618.625,240.625)"><g transform="scale(10.5)"><path d="M0,0v14h14V0H0z M12,12H2V2h10V12z"/></g></g>
<g transform="translate(240.625,618.625)"><g transform="scale(10.5)"><path d="M0,0v14h14V0H0z M12,12H2V2h10V12z"/></g></g>
<g transform="translate(282.625,282.625)"><g transform="scale(10.5)"><rect width="6" height="6"/></g></g>
<g transform="translate(660.625,282.625)"><g transform="scale(10.5)"><rect width="6" height="6"/></g></g>
<g transform="translate(282.625,660.625)"><g transform="scale(10.5)"><rect width="6" height="6"/></g></g>
</g><g transform="translate(240.625,800.24599619978) scale(1.2214983713355)"><path fill="#FFFFFF" d="M32.5,118.9q5,0,8.85-2.7t3.85-8.15t-4.15-8.35t-11.8-5.05t-11.1-3.75t-6.55-4.2q-6.2-5.2-6.2-16.1q0-8.9,6.35-15.3t17.35-6.4q5.3,0,11.05,1.55t7.15,1.55t2.5-2l1.1,0l0.7,20.2l-1.6,0q-4.8-8.7-10.05-13.95t-11.4-5.25t-9.55,2.85t-3.4,7.6t4.05,7.3t9.95,4.15t7.75,2.2t4.6,1.65t4.5,2.2t3.7,2.9t3.05,3.85q2.7,4.8,2.7,11.4q0,10.8-6.75,17.35t-17.75,6.55q-5.7,0-13.05-1.5t-8.15-1.5q-1.4,0-2.7,3l-1.4,0l-1-23.8l1.7,0q4.4,8.7,11.25,15.2t14.45,6.5z M100,50.9q-15.5,0-15.5,29.9l0,7.9q0,14.2,4.1,22.25t12.1,8.05q11,0,20.2-21.4l1.8,0l-0.7,22.3l-1.1,0q-0.6-1.1-1.1-1.55t-1.45-0.45t-7.25,1.55t-12.8,1.55q-16.3,0-25.25-8.8t-8.95-26.45t9.35-27.25t25.15-9.6q6.1,0,11.95,1.55t6.85,1.55t1.5-0.45t1.1-1.55l1.1,0l0.8,21.7l-1.8,0q-4.5-10.1-9.25-15.45t-10.85-5.35z M172.2,118.1l-7.3-21.6l-19.8,0l-7.7,21.6l7.5,0l0,1.9l-15.3,0l0-1.9l4.7,0l25.5-68.7l8.2,0l25.2,68.7l4.6,0l0,1.9l-32.7,0l0-1.9l7.1,0z M155.4,68.1l-9.4,26.2l18.1,0z M257.4,51.9l0,68.1l-14,0l-34.3-64.7l0,62.8l5.5,0l0,1.9l-13.7,0l0-1.9l5.5,0l0-66.2l-5.5,0l0-1.9l27.6,0l26.2,50.2l0-48.3l-5.5,0l0-1.9l13.7,0l0,1.9l-5.5,0z  M338.2,50l26.7,0l0,1.9l-5.5,0l0,66.2l5.5,0l0,1.9l-30.5,0l0-1.9l5.5,0l0-62.5l-0.4,0l-15,64.4l-12.5,0l-17.6-64.7l-0.4,0l0,62.8l5.5,0l0,1.9l-13.6,0l0-1.9l5.5,0l0-66.2l-5.5,0l0-1.9l27,0l13.3,51.5z M369.5,50l52,0l1,19.8l-1.8,0q-4.2-10.1-8.8-13.85t-13.5-3.75l-3.5,0l0,30.9l3.4,0q4.7,0,7.9-3.55t4.5-9.55l1.5,0l0,29.6l-1.7,0q-1.8-7.5-4.85-10.7t-8.35-3.2l-2.4,0l0,32.1l3.8,0q9.2,0,15.65-5.5t8.85-14.1l2,0l-0.8,21.8l-54.9,0l0-2.2l5.9,0l0-65.6l-5.9,0l0-2.2z"/></g></svg>