<?xml version="1.0" encoding="utf-8"?><!DOCTYPE svg PUBLIC "-//W3C//DTD SVG 1.1//EN" "http://www.w3.org/Graphics/SVG/1.1/DTD/svg11.dtd"><svg xmlns="http://www.w3.org/2000/svg" xml:space="preserve" xmlns:xlink="http://www.w3.org/1999/xlink" width="850" height="955.25" viewBox="0 0 850 955.25">
<rect width="715.41666666667" height="715.41666666667" fill="#ffffff" x="70.833333333333" y="70.833333333333" />
<g transform="scale(35.416666666667)" fill="#000000"><path d="M24,21h-1.7V1.7H1.7V21H0l1,2l-1,2h1v2h22v-2h1l-1-2L24,21z M2,2h20v19v1H2v-1V2z"/></g>
<g fill="#000000">
<g transform="translate(365,125) scale(4.12)"><rect width="6" height="6"/></g>
<g transform="translate(509,125) scale(4.12)"><rect width="6" height="6"/></g>
<g transform="translate(365,149) scale(4.12)"><rect width="6" height="6"/></g>
<g transform="translate(413,149) scale(4.12)"><rect width="6" height="6"/></g>
<g transform="translate(461,149) scale(4.12)"><rect width="6" height="6"/></g>
<g transform="translate(485,149) scale(4.12)"><rect width="6" height="6"/></g>
<g transform="translate(317,173) scale(4.12)"><rect width="6" height="6"/></g>
<g transform="translate(365,173) scale(4.12)"><rect width="6" height="6"/></g>
<g transform="translate(389,173) scale(4.12)"><rect width="6" height="6"/></g>
<g transform="translate(461,173) scale(4.12)"><rect width="6" height="6"/></g>
<g transform="translate(485,173) scale(4.12)"><rect width="6" height="6"/></g>
<g transform="translate(509,173) scale(4.12)"><rect width="6" height="6"/></g>
<g transform="translate(317,197) scale(4.12)"><rect width="6" height="6"/></g>
<g transform="translate(389,197) scale(4.12)"><rect width="6" height="6"/></g>
<g transform="translate(413,197) scale(4.12)"><rect width="6" height="6"/></g>
<g transform="translate(437,197) scale(4.12)"><rect width="6" height="6"/></g>
<g transform="translate(317,221) scale(4.12)"><rect width="6" height="6"/></g>
<g transform="translate(365,221) scale(4.12)"><rect width="6" height="6"/></g>
<g transform="translate(389,221) scale(4.12)"><rect width="6" height="6"/></g>
<g transform="translate(437,221) scale(4.12)"><rect width="6" height="6"/></g>
<g transform="translate(509,221) scale(4.12)"><rect width="6" height="6"/></g>
<g transform="translate(317,245) scale(4.12)"><rect width="6" height="6"/></g>
<g transform="translate(413,245) scale(4.12)"><rect width="6" height="6"/></g>
<g transform="translate(437,245) scale(4.12)"><rect width="6" height="6"/></g>
<g transform="translate(461,245) scale(4.12)"><rect width="6" height="6"/></g>
<g transform="translate(485,245) scale(4.12)"><rect width="6" height="6"/></g>
<g transform="translate(509,245) scale(4.12)"><rect width="6" height="6"/></g>
<g transform="translate(317,269) scale(4.12)"><rect width="6" height="6"/></g>
<g transform="translate(365,269) scale(4.12)"><rect width="6" height="6"/></g>
<g transform="translate(413,269) scale(4.12)"><rect width="6" height="6"/></g>
<g transform="translate(461,269) scale(4.12)"><rect width="6" height="6"/></g>
<g transform="translate(509,269) scale(4.12)"><rect width="6" height="6"/></g>
<g transform="translate(317,293) scale(4.12)"><rect width="6" height="6"/></g>
<g transform="translate(413,293) scale(4.12)"><rect width="6" height="6"/></g>
<g transform="translate(509,293) scale(4.12)"><rect width="6" height="6"/></g>
<g transform="translate(125,317) scale(4.12)"><rect width="6" height="6"/></g>
<g transform="translate(173,317) scale(4.12)"><rect width="6" height="6"/></g>
<g transform="translate(197,317) scale(4.12)"><rect width="6" height="6"/></g>
<g transform="translate(221,317) scale(4.12)"><rect width="6" height="6"/></g>
<g transform="translate(245,317) scale(4.12)"><rect width="6" height="6"/></g>
<g transform="translate(269,317) scale(4.12)"><rect width="6" height="6"/></g>
<g transform="translate(341,317) scale(4.12)"><rect width="6" height="6"/></g>
<g transform="translate(365,317) scale(4.12)"><rect width="6" height="6"/></g>
<g transform="translate(389,317) scale(4.12)"><rect width="6" height="6"/></g>
<g transform="translate(413,317) scale(4.12)"><rect width="6" height="6"/></g>
<g transform="translate(437,317) scale(4.12)"><rect width="6" height="6"/></g>
<g transform="translate(461,317) scale(4.12)"><rect width="6" height="6"/></g>
<g transform="translate(485,317) scale(4.12)"><rect width="6" height="6"/></g>
<g transform="translate(557,317) scale(4.12)"><rect width="6" height="6"/></g>
<g transform="translate(581,317) scale(4.12)"><rect width="6" height="6"/></g>
<g transform="translate(605,317) scale(4.12)"><rect width="6" height="6"/></g>
<g transform="translate(629,317) scale(4.12)"><rect width="6" height="6"/></g>
<g transform="translate(653,317) scale(4.12)"><rect width="6" height="6"/></g>
<g transform="translate(149,341) scale(4.12)"><rect width="6" height="6"/></g>
<g transform="translate(293,341) scale(4.12)"><rect width="6" height="6"/></g>
<g transform="translate(317,341) scale(4.12)"><rect width="6" height="6"/></g>
<g transform="translate(389,341) scale(4.12)"><rect width="6" height="6"/></g>
<g transform="translate(509,341) scale(4.12)"><rect width="6" height="6"/></g>
<g transform="translate(533,341) scale(4.12)"><rect width="6" height="6"/></g>
<g transform="translate(581,341) scale(4.12)"><rect width="6" height="6"/></g>
<g transform="translate(677,341) scale(4.12)"><rect width="6" height="6"/></g>
<g transform="translate(125,365) scale(4.12)"><rect width="6" height="6"/></g>
<g transform="translate(149,365) scale(4.12)"><rect width="6" height="6"/></g>
<g transform="translate(173,365) scale(4.12)"><rect width="6" height="6"/></g>
<g transform="translate(197,365) scale(4.12)"><rect width="6" height="6"/></g>
<g transform="translate(221,365) scale(4.12)"><rect width="6" height="6"/></g>
<g transform="translate(269,365) scale(4.12)"><rect width="6" height="6"/></g>
<g transform="translate(293,365) scale(4.12)"><rect width="6" height="6"/></g>
<g transform="translate(317,365) scale(4.12)"><rect width="6" height="6"/></g>
<g transform="translate(389,365) scale(4.12)"><rect width="6" height="6"/></g>
<g transform="translate(437,365) scale(4.12)"><rect width="6" height="6"/></g>
<g transform="translate(485,365) scale(4.12)"><rect width="6" height="6"/></g>
<g transform="translate(509,365) scale(4.12)"><rect width="6" height="6"/></g>
<g transform="translate(533,365) scale(4.12)"><rect width="6" height="6"/></g>
<g transform="translate(557,365) scale(4.12)"><rect width="6" height="6"/></g>
<g transform="translate(581,365) scale(4.12)"><rect width="6" height="6"/></g>
<g transform="translate(605,365) scale(4.12)"><rect width="6" height="6"/></g>
<g transform="translate(629,365) scale(4.12)"><rect width="6" height="6"/></g>
<g transform="translate(677,365) scale(4.12)"><rect width="6" height="6"/></g>
<g transform="translate(701,365) scale(4.12)"><rect width="6" height="6"/></g>
<g transform="translate(149,389) scale(4.12)"><rect width="6" height="6"/></g>
<g transform="translate(173,389) scale(4.12)"><rect width="6" height="6"/></g>
<g transform="translate(221,389) scale(4.12)"><rect width="6" height="6"/></g>
<g transform="translate(245,389) scale(4.12)"><rect width="6" height="6"/></g>
<g transform="translate(293,389) scale(4.12)"><rect width="6" height="6"/></g>
<g transform="translate(317,389) scale(4.12)"><rect width="6" height="6"/></g>
<g transform="translate(389,389) scale(4.12)"><rect width="6" height="6"/></g>
<g transform="translate(461,389) scale(4.12)"><rect width="6" height="6"/></g>
<g transform="translate(509,389) scale(4.12)"><rect width="6" height="6"/></g>
<g transform="translate(533,389) scale(4.12)"><rect width="6" height="6"/></g>
<g transform="translate(581,389) scale(4.12)"><rect width="6" height="6"/></g>
<g transform="translate(701,389) scale(4.12)"><rect width="6" height="6"/></g>
<g transform="translate(149,413) scale(4.12)"><rect width="6" height="6"/></g>
<g transform="translate(221,413) scale(4.12)"><rect width="6" height="6"/></g>
<g transform="translate(269,413) scale(4.12)"><rect width="6" height="6"/></g>
<g transform="translate(317,413) scale(4.12)"><rect width="6" height="6"/></g>
<g transform="translate(341,413) scale(4.12)"><rect width="6" height="6"/></g>
<g transform="translate(365,413) scale(4.12)"><rect width="6" height="6"/></g>
<g transform="translate(389,413) scale(4.12)"><rect width="6" height="6"/></g>
<g transform="translate(413,413) scale(4.12)"><rect width="6" height="6"/></g>
<g transform="translate(437,413) scale(4.12)"><rect width="6" height="6"/></g>
<g transform="translate(461,413) scale(4.12)"><rect width="6" height="6"/></g>
<g transform="translate(533,413) scale(4.12)"><rect width="6" height="6"/></g>
<g transform="translate(557,413) scale(4.12)"><rect width="6" height="6"/></g>
<g transform="translate(581,413) scale(4.12)"><rect width="6" height="6"/></g>
<g transform="translate(605,413) scale(4.12)"><rect width="6" height="6"/></g>
<g transform="translate(653,413) scale(4.12)"><rect width="6" height="6"/></g>
<g transform="translate(677,413) scale(4.12)"><rect width="6" height="6"/></g>
<g transform="translate(701,413) scale(4.12)"><rect width="6" height="6"/></g>
<g transform="translate(125,437) scale(4.12)"><rect width="6" height="6"/></g>
<g transform="translate(197,437) scale(4.12)"><rect width="6" height="6"/></g>
<g transform="translate(221,437) scale(4.12)"><rect width="6" height="6"/></g>
<g transform="translate(245,437) scale(4.12)"><rect width="6" height="6"/></g>
<g transform="translate(317,437) scale(4.12)"><rect width="6" height="6"/></g>
<g transform="translate(341,437) scale(4.12)"><rect width="6" height="6"/></g>
<g transform="translate(437,437) scale(4.12)"><rect width="6" height="6"/></g>
<g transform="translate(509,437) scale(4.12)"><rect width="6" height="6"/></g>
<g transform="translate(533,437) scale(4.12)"><rect width="6" height="6"/></g>
<g transform="translate(581,437) scale(4.12)"><rect width="6" height="6"/></g>
<g transform="translate(629,437) scale(4.12)"><rect width="6" height="6"/></g>
<g transform="translate(677,437) scale(4.12)"><rect width="6" height="6"/></g>
<g transform="translate(125,461) scale(4.12)"><rect width="6" height="6"/></g>
<g transform="translate(173,461) scale(4.12)"><rect width="6" height="6"/></g>
<g transform="translate(197,461) scale(4.12)"><rect width="6" height="6"/></g>
<g transform="translate(245,461) scale(4.12)"><rect width="6" height="6"/></g>
<g transform="translate(269,461) scale(4.12)"><rect width="6" height="6"/></g>
<g transform="translate(293,461) scale(4.12)"><rect width="6" height="6"/></g>
<g transform="translate(317,461) scale(4.12)"><rect width="6" height="6"/></g>
<g transform="translate(341,461) scale(4.12)"><rect width="6" height="6"/></g>
<g transform="translate(365,461) scale(4.12)"><rect width="6" height="6"/></g>
<g transform="translate(389,461) scale(4.12)"><rect width="6" height="6"/></g>
<g transform="translate(413,461) scale(4.12)"><rect width="6" height="6"/></g>
<g transform="translate(437,461) scale(4.12)"><rect width="6" height="6"/></g>
<g transform="translate(461,461) scale(4.12)"><rect width="6" height="6"/></g>
<g transform="translate(485,461) scale(4.12)"><rect width="6" height="6"/></g>
<g transform="translate(509,461) scale(4.12)"><rect width="6" height="6"/></g>
<g transform="translate(533,461) scale(4.12)"><rect width="6" height="6"/></g>
<g transform="translate(557,461) scale(4.12)"><rect width="6" height="6"/></g>
<g transform="translate(581,461) scale(4.12)"><rect width="6" height="6"/></g>
<g transform="translate(605,461) scale(4.12)"><rect width="6" height="6"/></g>
<g transform="translate(629,461) scale(4.12)"><rect width="6" height="6"/></g>
<g transform="translate(677,461) scale(4.12)"><rect width="6" height="6"/></g>
<g transform="translate(701,461) scale(4.12)"><rect width="6" height="6"/></g>
<g transform="translate(125,485) scale(4.12)"><rect width="6" height="6"/></g>
<g transform="translate(197,485) scale(4.12)"><rect width="6" height="6"/></g>
<g transform="translate(245,485) scale(4.12)"><rect width="6" height="6"/></g>
<g transform="translate(293,485) scale(4.12)"><rect width="6" height="6"/></g>
<g transform="translate(317,485) scale(4.12)"><rect width="6" height="6"/></g>
<g transform="translate(365,485) scale(4.12)"><rect width="6" height="6"/></g>
<g transform="translate(389,485) scale(4.12)"><rect width="6" height="6"/></g>
<g transform="translate(461,485) scale(4.12)"><rect width="6" height="6"/></g>
<g transform="translate(509,485) scale(4.12)"><rect width="6" height="6"/></g>
<g transform="translate(533,485) scale(4.12)"><rect width="6" height="6"/></g>
<g transform="translate(581,485) scale(4.12)"><rect width="6" height="6"/></g>
<g transform="translate(605,485) scale(4.12)"><rect width="6" height="6"/></g>
<g transform="translate(701,485) scale(4.12)"><rect width="6" height="6"/></g>
<g transform="translate(125,509) scale(4.12)"><rect width="6" height="6"/></g>
<g transform="translate(269,509) scale(4.12)"><rect width="6" height="6"/></g>
<g transform="translate(293,509) scale(4.12)"><rect width="6" height="6"/></g>
<g transform="translate(317,509) scale(4.12)"><rect width="6" height="6"/></g>
<g transform="translate(341,509) scale(4.12)"><rect width="6" height="6"/></g>
<g transform="translate(389,509) scale(4.12)"><rect width="6" height="6"/></g>
<g transform="translate(437,509) scale(4.12)"><rect width="6" height="6"/></g>
<g transform="translate(461,509) scale(4.12)"><rect width="6" height="6"/></g>
<g transform="translate(509,509) scale(4.12)"><rect width="6" height="6"/></g>
<g transform="translate(533,509) scale(4.12)"><rect width="6" height="6"/></g>
<g transform="translate(557,509) scale(4.12)"><rect width="6" height="6"/></g>
<g transform="translate(581,509) scale(4.12)"><rect width="6" height="6"/></g>
<g transform="translate(605,509) scale(4.12)"><rect width="6" height="6"/></g>
<g transform="translate(653,509) scale(4.12)"><rect width="6" height="6"/></g>
<g transform="translate(317,533) scale(4.12)"><rect width="6" height="6"/></g>
<g transform="translate(365,533) scale(4.12)"><rect width="6" height="6"/></g>
<g transform="translate(413,533) scale(4.12)"><rect width="6" height="6"/></g>
<g transform="translate(437,533) scale(4.12)"><rect width="6" height="6"/></g>
<g transform="translate(485,533) scale(4.12)"><rect width="6" height="6"/></g>
<g transform="translate(509,533) scale(4.12)"><rect width="6" height="6"/></g>
<g transform="translate(605,533) scale(4.12)"><rect width="6" height="6"/></g>
<g transform="translate(629,533) scale(4.12)"><rect width="6" height="6"/></g>
<g transform="translate(341,557) scale(4.12)"><rect width="6" height="6"/></g>
<g transform="translate(461,557) scale(4.12)"><rect width="6" height="6"/></g>
<g transform="translate(509,557) scale(4.12)"><rect width="6" height="6"/></g>
<g transform="translate(557,557) scale(4.12)"><rect width="6" height="6"/></g>
<g transform="translate(605,557) scale(4.12)"><rect width="6" height="6"/></g>
<g transform="translate(653,557) scale(4.12)"><rect width="6" height="6"/></g>
<g transform="translate(677,557) scale(4.12)"><rect width="6" height="6"/></g>
<g transform="translate(701,557) scale(4.12)"><rect width="6" height="6"/></g>
<g transform="translate(317,581) scale(4.12)"><rect width="6" height="6"/></g>
<g transform="translate(365,581) scale(4.12)"><rect width="6" height="6"/></g>
<g transform="translate(413,581) scale(4.12)"><rect width="6" height="6"/></g>
<g transform="translate(461,581) scale(4.12)"><rect width="6" height="6"/></g>
<g transform="translate(509,581) scale(4.12)"><rect width="6" height="6"/></g>
<g transform="translate(605,581) scale(4.12)"><rect width="6" height="6"/></g>
<g transform="translate(629,581) scale(4.12)"><rect width="6" height="6"/></g>
<g transform="translate(677,581) scale(4.12)"><rect width="6" height="6"/></g>
<g transform="translate(317,605) scale(4.12)"><rect width="6" height="6"/></g>
<g transform="translate(341,605) scale(4.12)"><rect width="6" height="6"/></g>
<g transform="translate(365,605) scale(4.12)"><rect width="6" height="6"/></g>
<g transform="translate(413,605) scale(4.12)"><rect width="6" height="6"/></g>
<g transform="translate(437,605) scale(4.12)"><rect width="6" height="6"/></g>
<g transform="translate(485,605) scale(4.12)"><rect width="6" height="6"/></g>
<g transform="translate(509,605) scale(4.12)"><rect width="6" height="6"/></g>
<g transform="translate(533,605) scale(4.12)"><rect width="6" height="6"/></g>
<g transform="translate(557,605) scale(4.12)"><rect width="6" height="6"/></g>
<g transform="translate(581,605) scale(4.12)"><rect width="6" height="6"/></g>
<g transform="translate(605,605) scale(4.12)"><rect width="6" height="6"/></g>
<g transform="translate(653,605) scale(4.12)"><rect width="6" height="6"/></g>
<g transform="translate(677,605) scale(4.12)"><rect width="6" height="6"/></g>
<g transform="translate(701,605) scale(4.12)"><rect width="6" height="6"/></g>
<g transform="translate(317,629) scale(4.12)"><rect width="6" height="6"/></g>
<g transform="translate(341,629) scale(4.12)"><rect width="6" height="6"/></g>
<g transform="translate(365,629) scale(4.12)"><rect width="6" height="6"/></g>
<g transform="translate(437,629) scale(4.12)"><rect width="6" height="6"/></g>
<g transform="translate(509,629) scale(4.12)"><rect width="6" height="6"/></g>
<g transform="translate(557,629) scale(4.12)"><rect width="6" height="6"/></g>
<g transform="translate(605,629) scale(4.12)"><rect width="6" height="6"/></g>
<g transform="translate(629,629) scale(4.12)"><rect width="6" height="6"/></g>
<g transform="translate(653,629) scale(4.12)"><rect width="6" height="6"/></g>
<g transform="translate(677,629) scale(4.12)"><rect width="6" height="6"/></g>
<g transform="translate(701,629) scale(4.12)"><rect width="6" height="6"/></g>
<g transform="translate(317,653) scale(4.12)"><rect width="6" height="6"/></g>
<g transform="translate(341,653) scale(4.12)"><rect width="6" height="6"/></g>
<g transform="translate(365,653) scale(4.12)"><rect width="6" height="6"/></g>
<g transform="translate(389,653) scale(4.12)"><rect width="6" height="6"/></g>
<g transform="translate(413,653) scale(4.12)"><rect width="6" height="6"/></g>
<g transform="translate(437,653) scale(4.12)"><rect width="6" height="6"/></g>
<g transform="translate(461,653) scale(4.12)"><rect width="6" height="6"/></g>
<g transform="translate(629,653) scale(4.12)"><rect width="6" height="6"/></g>
<g transform="translate(653,653) scale(4.12)"><rect width="6" height="6"/></g>
<g transform="translate(701,653) scale(4.12)"><rect width="6" height="6"/></g>
<g transform="translate(341,677) scale(4.12)"><rect width="6" height="6"/></g>
<g transform="translate(389,677) scale(4.12)"><rect width="6" height="6"/></g>
<g transform="translate(461,677) scale(4.12)"><rect width="6" height="6"/></g>
<g transform="translate(485,677) scale(4.12)"><rect width="6" height="6"/></g>
<g transform="translate(509,677) scale(4.12)"><rect width="6" height="6"/></g>
<g transform="translate(533,677) scale(4.12)"><rect width="6" height="6"/></g>
<g transform="translate(581,677) scale(4.12)"><rect width="6" height="6"/></g>
<g transform="translate(605,677) scale(4.12)"><rect width="6" height="6"/></g>
<g transform="translate(629,677) scale(4.12)"><rect width="6" height="6"/></g>
<g transform="translate(701,677) scale(4.12)"><rect width="6" height="6"/></g>
<g transform="translate(317,701) scale(4.12)"><rect width="6" height="6"/></g>
<g transform="translate(365,701) scale(4.12)"><rect width="6" height="6"/></g>
<g transform="translate(389,701) scale(4.12)"><rect width="6" height="6"/></g>
<g transform="translate(413,701) scale(4.12)"><rect width="6" height="6"/></g>
<g transform="translate(581,701) scale(4.12)"><rect width="6" height="6"/></g>
<g transform="translate(605,701) scale(4.12)"><rect width="6" height="6"/></g>
<g transform="translate(629,701) scale(4.12)"><rect width="6" height="6"/></g>
<g transform="translate(653,701) scale(4.12)"><rect width="6" height="6"/></g>
<g transform="translate(677,701) scale(4.12)"><rect width="6" height="6"/></g>
<g transform="translate(701,701) scale(4.12)"><rect width="6" height="6"/></g>
<g transform="translate(125,125)"><g transform="scale(12)"><path d="M0,0v14h14V0H0z M12,12H2V2h10V12z"/></g></g>
<g transform="translate(557,125)"><g transform="scale(12)"><path d="M0,0v14h14V0H0z M12,12H2V2h10V12z"/></g></g>
<g transform="translate(125,557)"><g transform="scale(12)"><path d="M0,0v14h14V0H0z M12,12H2V2h10V12z"/></g></g>
<g transform="translate(173,173)"><g transform="scale(12)"><rect width="6" height="6"/></g></g>
<g transform="translate(605,173)"><g transform="scale(12)"><rect width="6" height="6"/></g></g>
<g transform="translate(173,605)"><g transform="scale(12)"><rect width="6" height="6"/></g></g>
</g><g transform="translate(171.29861111111,767.36111111111) scale(1.1805555555556)"><path fill="#FFFFFF" d="M32.5,118.9q5,0,8.85-2.7t3.85-8.15t-4.15-8.35t-11.8-5.05t-11.1-3.75t-6.55-4.2q-6.2-5.2-6.2-16.1q0-8.9,6.35-15.3t17.35-6.4q5.3,0,11.05,1.55t7.15,1.55t2.5-2l1.1,0l0.7,20.2l-1.6,0q-4.8-8.7-10.05-13.95t-11.4-5.25t-9.55,2.85t-3.4,7.6t4.05,7.3t9.95,4.15t7.75,2.2t4.6,1.65t4.5,2.2t3.7,2.9t3.05,3.85q2.7,4.8,2.7,11.4q0,10.8-6.75,17.35t-17.75,6.55q-5.7,0-13.05-1.5t-8.15-1.5q-1.4,0-2.7,3l-1.4,0l-1-23.8l1.7,0q4.4,8.7,11.25,15.2t14.45,6.5z M100,50.9q-15.5,0-15.5,29.9l0,7.9q0,14.2,4.1,22.25t12.1,8.05q11,0,20.2-21.4l1.8,0l-0.7,22.3l-1.1,0q-0.6-1.1-1.1-1.55t-1.45-0.45t-7.25,1.55t-12.8,1.55q-16.3,0-25.25-8.8t-8.95-26.45t9.35-27.25t25.15-9.6q6.1,0,11.95,1.55t6.85,1.55t1.5-0.45t1.1-1.55l1.1,0l0.8,21.7l-1.8,0q-4.5-10.1-9.25-15.45t-10.85-5.35z M172.2,118.1l-7.3-21.6l-19.8,0l-7.7,21.6l7.5,0l0,1.9l-15.3,0l0-1.9l4.7,0l25.5-68.7l8.2,0l25.2,68.7l4.6,0l0,1.9l-32.7,0l0-1.9l7.1,0z M155.4,68.1l-9.4,26.2l18.1,0z M257.4,51.9l0,68.1l-14,0l-34.3-64.7l0,62.8l5.5,0l0,1.9l-13.7,0l0-1.9l5.5,0l0-66.2l-5.5,0l0-1.9l27.6,0l26.2,50.2l0-48.3l-5.5,0l0-1.9l13.7,0l0,1.9l-5.5,0z  M338.2,50l26.7,0l0,1.9l-5.5,0l0,66.2l5.5,0l0,1.9l-30.5,0l0-1.9l5.5,0l0-62.5l-0.4,0l-15,64.4l-12.5,0l-17.6-64.7l-0.4,0l0,62.8l5.5,0l0,1.9l-13.6,0l0-1.9l5.5,0l0-66.2l-5.5,0l0-1.9l27,0l13.3,51.5z M369.5,50l52,0l1,19.8l-1.8,0q-4.2-10.1-8.8-13.85t-13.5-3.75l-3.5,0l0,30.9l3.4,0q4.7,0,7.9-3.55t4.5-9.55l1.5,0l0,29.6l-1.7,0q-1.8-7.5-4.85-10.7t-8.35-3.2l-2.4,0l0,32.1l3.8,0q9.2,0,15.65-5.5t8.85-14.1l2,0l-0.8,21.8l-54.9,0l0-2.2l5.9,0l0-65.6l-5.9,0l0-2.2z"/></g></svg>