<?xml version="1.0" encoding="utf-8"?><!DOCTYPE svg PUBLIC "-//W3C//DTD SVG 1.1//EN" "http://www.w3.org/Graphics/SVG/1.1/DTD/svg11.dtd"><svg xmlns="http://www.w3.org/2000/svg" xml:space="preserve" xmlns:xlink="http://www.w3.org/1999/xlink" width="750" height="875" viewBox="0 0 750 875">
<rect width="694.375" height="694.375" fill="#ffffff" x="31.25" y="31.25" />
<g transform="scale(31.25)" fill="#000000"><path d="M22.7,0H1.3C0.6,0,0,0.6,0,1.3v25.3C0,27.4,0.6,28,1.3,28h21.3c0.7,0,1.3-0.6,1.3-1.3V1.3C24,0.6,23.4,0,22.7,0 z M23,22c0,0.6-0.5,1-1,1H2c-0.6,0-1-0.5-1-1V2c0-0.6,0.5-1,1-1h20c0.6,0,1,0.5,1,1V22z"/></g>
<g fill="#000000">
<g transform="translate(315,75) scale(4.12)"><rect width="6" height="6"/></g>
<g transform="translate(459,75) scale(4.12)"><rect width="6" height="6"/></g>
<g transform="translate(315,99) scale(4.12)"><rect width="6" height="6"/></g>
<g transform="translate(363,99) scale(4.12)"><rect width="6" height="6"/></g>
<g transform="translate(411,99) scale(4.12)"><rect width="6" height="6"/></g>
<g transform="translate(435,99) scale(4.12)"><rect width="6" height="6"/></g>
<g transform="translate(267,123) scale(4.12)"><rect width="6" height="6"/></g>
<g transform="translate(315,123) scale(4.12)"><rect width="6" height="6"/></g>
<g transform="translate(339,123) scale(4.12)"><rect width="6" height="6"/></g>
<g transform="translate(411,123) scale(4.12)"><rect width="6" height="6"/></g>
<g transform="translate(435,123) scale(4.12)"><rect width="6" height="6"/></g>
<g transform="translate(459,123) scale(4.12)"><rect width="6" height="6"/></g>
<g transform="translate(267,147) scale(4.12)"><rect width="6" height="6"/></g>
<g transform="translate(339,147) scale(4.12)"><rect width="6" height="6"/></g>
<g transform="translate(363,147) scale(4.12)"><rect width="6" height="6"/></g>
<g transform="translate(387,147) scale(4.12)"><rect width="6" height="6"/></g>
<g transform="translate(267,171) scale(4.12)"><rect width="6" height="6"/></g>
<g transform="translate(315,171) scale(4.12)"><rect width="6" height="6"/></g>
<g transform="translate(339,171) scale(4.12)"><rect width="6" height="6"/></g>
<g transform="translate(387,171) scale(4.12)"><rect width="6" height="6"/></g>
<g transform="translate(459,171) scale(4.12)"><rect width="6" height="6"/></g>
<g transform="translate(267,195) scale(4.12)"><rect width="6" height="6"/></g>
<g transform="translate(363,195) scale(4.12)"><rect width="6" height="6"/></g>
<g transform="translate(387,195) scale(4.12)"><rect width="6" height="6"/></g>
<g transform="translate(411,195) scale(4.12)"><rect width="6" height="6"/></g>
<g transform="translate(435,195) scale(4.12)"><rect width="6" height="6"/></g>
<g transform="translate(459,195) scale(4.12)"><rect width="6" height="6"/></g>
<g transform="translate(267,219) scale(4.12)"><rect width="6" height="6"/></g>
<g transform="translate(315,219) scale(4.12)"><rect width="6" height="6"/></g>
<g transform="translate(363,219) scale(4.12)"><rect width="6" height="6"/></g>
<g transform="translate(411,219) scale(4.12)"><rect width="6" height="6"/></g>
<g transform="translate(459,219) scale(4.12)"><rect width="6" height="6"/></g>
<g transform="translate(267,243) scale(4.12)"><rect width="6" height="6"/></g>
<g transform="translate(363,243) scale(4.12)"><rect width="6" height="6"/></g>
<g transform="translate(459,243) scale(4.12)"><rect width="6" height="6"/></g>
<g transform="translate(75,267) scale(4.12)"><rect width="6" height="6"/></g>
<g transform="translate(123,267) scale(4.12)"><rect width="6" height="6"/></g>
<g transform="translate(147,267) scale(4.12)"><rect width="6" height="6"/></g>
<g transform="translate(171,267) scale(4.12)"><rect width="6" height="6"/></g>
<g transform="translate(195,267) scale(4.12)"><rect width="6" height="6"/></g>
<g transform="translate(219,267) scale(4.12)"><rect width="6" height="6"/></g>
<g transform="translate(291,267) scale(4.12)"><rect width="6" height="6"/></g>
<g transform="translate(315,267) scale(4.12)"><rect width="6" height="6"/></g>
<g transform="translate(339,267) scale(4.12)"><rect width="6" height="6"/></g>
<g transform="translate(363,267) scale(4.12)"><rect width="6" height="6"/></g>
<g transform="translate(387,267) scale(4.12)"><rect width="6" height="6"/></g>
<g transform="translate(411,267) scale(4.12)"><rect width="6" height="6"/></g>
<g transform="translate(435,267) scale(4.12)"><rect width="6" height="6"/></g>
<g transform="translate(507,267) scale(4.12)"><rect width="6" height="6"/></g>
<g transform="translate(531,267) scale(4.12)"><rect width="6" height="6"/></g>
<g transform="translate(555,267) scale(4.12)"><rect width="6" height="6"/></g>
<g transform="translate(579,267) scale(4.12)"><rect width="6" height="6"/></g>
<g transform="translate(603,267) scale(4.12)"><rect width="6" height="6"/></g>
<g transform="translate(99,291) scale(4.12)"><rect width="6" height="6"/></g>
<g transform="translate(243,291) scale(4.12)"><rect width="6" height="6"/></g>
<g transform="translate(267,291) scale(4.12)"><rect width="6" height="6"/></g>
<g transform="translate(339,291) scale(4.12)"><rect width="6" height="6"/></g>
<g transform="translate(459,291) scale(4.12)"><rect width="6" height="6"/></g>
<g transform="translate(483,291) scale(4.12)"><rect width="6" height="6"/></g>
<g transform="translate(531,291) scale(4.12)"><rect width="6" height="6"/></g>
<g transform="translate(627,291) scale(4.12)"><rect width="6" height="6"/></g>
<g transform="translate(75,315) scale(4.12)"><rect width="6" height="6"/></g>
<g transform="translate(99,315) scale(4.12)"><rect width="6" height="6"/></g>
<g transform="translate(123,315) scale(4.12)"><rect width="6" height="6"/></g>
<g transform="translate(147,315) scale(4.12)"><rect width="6" height="6"/></g>
<g transform="translate(171,315) scale(4.12)"><rect width="6" height="6"/></g>
<g transform="translate(219,315) scale(4.12)"><rect width="6" height="6"/></g>
<g transform="translate(243,315) scale(4.12)"><rect width="6" height="6"/></g>
<g transform="translate(267,315) scale(4.12)"><rect width="6" height="6"/></g>
<g transform="translate(339,315) scale(4.12)"><rect width="6" height="6"/></g>
<g transform="translate(387,315) scale(4.12)"><rect width="6" height="6"/></g>
<g transform="translate(435,315) scale(4.12)"><rect width="6" height="6"/></g>
<g transform="translate(459,315) scale(4.12)"><rect width="6" height="6"/></g>
<g transform="translate(483,315) scale(4.12)"><rect width="6" height="6"/></g>
<g transform="translate(507,315) scale(4.12)"><rect width="6" height="6"/></g>
<g transform="translate(531,315) scale(4.12)"><rect width="6" height="6"/></g>
<g transform="translate(555,315) scale(4.12)"><rect width="6" height="6"/></g>
<g transform="translate(579,315) scale(4.12)"><rect width="6" height="6"/></g>
<g transform="translate(627,315) scale(4.12)"><rect width="6" height="6"/></g>
<g transform="translate(651,315) scale(4.12)"><rect width="6" height="6"/></g>
<g transform="translate(99,339) scale(4.12)"><rect width="6" height="6"/></g>
<g transform="translate(123,339) scale(4.12)"><rect width="6" height="6"/></g>
<g transform="translate(171,339) scale(4.12)"><rect width="6" height="6"/></g>
<g transform="translate(195,339) scale(4.12)"><rect width="6" height="6"/></g>
<g transform="translate(243,339) scale(4.12)"><rect width="6" height="6"/></g>
<g transform="translate(267,339) scale(4.12)"><rect width="6" height="6"/></g>
<g transform="translate(339,339) scale(4.12)"><rect width="6" height="6"/></g>
<g transform="translate(411,339) scale(4.12)"><rect width="6" height="6"/></g>
<g transform="translate(459,339) scale(4.12)"><rect width="6" height="6"/></g>
<g transform="translate(483,339) scale(4.12)"><rect width="6" height="6"/></g>
<g transform="translate(531,339) scale(4.12)"><rect width="6" height="6"/></g>
<g transform="translate(651,339) scale(4.12)"><rect width="6" height="6"/></g>
<g transform="translate(99,363) scale(4.12)"><rect width="6" height="6"/></g>
<g transform="translate(171,363) scale(4.12)"><rect width="6" height="6"/></g>
<g transform="translate(219,363) scale(4.12)"><rect width="6" height="6"/></g>
<g transform="translate(267,363) scale(4.12)"><rect width="6" height="6"/></g>
<g transform="translate(291,363) scale(4.12)"><rect width="6" height="6"/></g>
<g transform="translate(315,363) scale(4.12)"><rect width="6" height="6"/></g>
<g transform="translate(339,363) scale(4.12)"><rect width="6" height="6"/></g>
<g transform="translate(363,363) scale(4.12)"><rect width="6" height="6"/></g>
<g transform="translate(387,363) scale(4.12)"><rect width="6" height="6"/></g>
<g transform="translate(411,363) scale(4.12)"><rect width="6" height="6"/></g>
<g transform="translate(483,363) scale(4.12)"><rect width="6" height="6"/></g>
<g transform="translate(507,363) scale(4.12)"><rect width="6" height="6"/></g>
<g transform="translate(531,363) scale(4.12)"><rect width="6" height="6"/></g>
<g transform="translate(555,363) scale(4.12)"><rect width="6" height="6"/></g>
<g transform="translate(603,363) scale(4.12)"><rect width="6" height="6"/></g>
<g transform="translate(627,363) scale(4.12)"><rect width="6" height="6"/></g>
<g transform="translate(651,363) scale(4.12)"><rect width="6" height="6"/></g>
<g transform="translate(75,387) scale(4.12)"><rect width="6" height="6"/></g>
<g transform="translate(147,387) scale(4.12)"><rect width="6" height="6"/></g>
<g transform="translate(171,387) scale(4.12)"><rect width="6" height="6"/></g>
<g transform="translate(195,387) scale(4.12)"><rect width="6" height="6"/></g>
<g transform="translate(267,387) scale(4.12)"><rect width="6" height="6"/></g>
<g transform="translate(291,387) scale(4.12)"><rect width="6" height="6"/></g>
<g transform="translate(387,387) scale(4.12)"><rect width="6" height="6"/></g>
<g transform="translate(459,387) scale(4.12)"><rect width="6" height="6"/></g>
<g transform="translate(483,387) scale(4.12)"><rect width="6" height="6"/></g>
<g transform="translate(531,387) scale(4.12)"><rect width="6" height="6"/></g>
<g transform="translate(579,387) scale(4.12)"><rect width="6" height="6"/></g>
<g transform="translate(627,387) scale(4.12)"><rect width="6" height="6"/></g>
<g transform="translate(75,411) scale(4.12)"><rect width="6" height="6"/></g>
<g transform="translate(123,411) scale(4.12)"><rect width="6" height="6"/></g>
<g transform="translate(147,411) scale(4.12)"><rect width="6" height="6"/></g>
<g transform="translate(195,411) scale(4.12)"><rect width="6" height="6"/></g>
<g transform="translate(219,411) scale(4.12)"><rect width="6" height="6"/></g>
<g transform="translate(243,411) scale(4.12)"><rect width="6" height="6"/></g>
<g transform="translate(267,411) scale(4.12)"><rect width="6" height="6"/></g>
<g transform="translate(291,411) scale(4.12)"><rect width="6" height="6"/></g>
<g transform="translate(315,411) scale(4.12)"><rect width="6" height="6"/></g>
<g transform="translate(339,411) scale(4.12)"><rect width="6" height="6"/></g>
<g transform="translate(363,411) scale(4.12)"><rect width="6" height="6"/></g>
<g transform="translate(387,411) scale(4.12)"><rect width="6" height="6"/></g>
<g transform="translate(411,411) scale(4.12)"><rect width="6" height="6"/></g>
<g transform="translate(435,411) scale(4.12)"><rect width="6" height="6"/></g>
<g transform="translate(459,411) scale(4.12)"><rect width="6" height="6"/></g>
<g transform="translate(483,411) scale(4.12)"><rect width="6" height="6"/></g>
<g transform="translate(507,411) scale(4.12)"><rect width="6" height="6"/></g>
<g transform="translate(531,411) scale(4.12)"><rect width="6" height="6"/></g>
<g transform="translate(555,411) scale(4.12)"><rect width="6" height="6"/></g>
<g transform="translate(579,411) scale(4.12)"><rect width="6" height="6"/></g>
<g transform="translate(627,411) scale(4.12)"><rect width="6" height="6"/></g>
<g transform="translate(651,411) scale(4.12)"><rect width="6" height="6"/></g>
<g transform="translate(75,435) scale(4.12)"><rect width="6" height="6"/></g>
<g transform="translate(147,435) scale(4.12)"><rect width="6" height="6"/></g>
<g transform="translate(195,435) scale(4.12)"><rect width="6" height="6"/></g>
<g transform="translate(243,435) scale(4.12)"><rect width="6" height="6"/></g>
<g transform="translate(267,435) scale(4.12)"><rect width="6" height="6"/></g>
<g transform="translate(315,435) scale(4.12)"><rect width="6" height="6"/></g>
<g transform="translate(339,435) scale(4.12)"><rect width="6" height="6"/></g>
<g transform="translate(411,435) scale(4.12)"><rect width="6" height="6"/></g>
<g transform="translate(459,435) scale(4.12)"><rect width="6" height="6"/></g>
<g transform="translate(483,435) scale(4.12)"><rect width="6" height="6"/></g>
<g transform="translate(531,435) scale(4.12)"><rect width="6" height="6"/></g>
<g transform="translate(555,435) scale(4.12)"><rect width="6" height="6"/></g>
<g transform="translate(651,435) scale(4.12)"><rect width="6" height="6"/></g>
<g transform="translate(75,459) scale(4.12)"><rect width="6" height="6"/></g>
<g transform="translate(219,459) scale(4.12)"><rect width="6" height="6"/></g>
<g transform="translate(243,459) scale(4.12)"><rect width="6" height="6"/></g>
<g transform="translate(267,459) scale(4.12)"><rect width="6" height="6"/></g>
<g transform="translate(291,459) scale(4.12)"><rect width="6" height="6"/></g>
<g transform="translate(339,459) scale(4.12)"><rect width="6" height="6"/></g>
<g transform="translate(387,459) scale(4.12)"><rect width="6" height="6"/></g>
<g transform="translate(411,459) scale(4.12)"><rect width="6" height="6"/></g>
<g transform="translate(459,459) scale(4.12)"><rect width="6" height="6"/></g>
<g transform="translate(483,459) scale(4.12)"><rect width="6" height="6"/></g>
<g transform="translate(507,459) scale(4.12)"><rect width="6" height="6"/></g>
<g transform="translate(531,459) scale(4.12)"><rect width="6" height="6"/></g>
<g transform="translate(555,459) scale(4.12)"><rect width="6" height="6"/></g>
<g transform="translate(603,459) scale(4.12)"><rect width="6" height="6"/></g>
<g transform="translate(267,483) scale(4.12)"><rect width="6" height="6"/></g>
<g transform="translate(315,483) scale(4.12)"><rect width="6" height="6"/></g>
<g transform="translate(363,483) scale(4.12)"><rect width="6" height="6"/></g>
<g transform="translate(387,483) scale(4.12)"><rect width="6" height="6"/></g>
<g transform="translate(435,483) scale(4.12)"><rect width="6" height="6"/></g>
<g transform="translate(459,483) scale(4.12)"><rect width="6" height="6"/></g>
<g transform="translate(555,483) scale(4.12)"><rect width="6" height="6"/></g>
<g transform="translate(579,483) scale(4.12)"><rect width="6" height="6"/></g>
<g transform="translate(291,507) scale(4.12)"><rect width="6" height="6"/></g>
<g transform="translate(411,507) scale(4.12)"><rect width="6" height="6"/></g>
<g transform="translate(459,507) scale(4.12)"><rect width="6" height="6"/></g>
<g transform="translate(507,507) scale(4.12)"><rect width="6" height="6"/></g>
<g transform="translate(555,507) scale(4.12)"><rect width="6" height="6"/></g>
<g transform="translate(603,507) scale(4.12)"><rect width="6" height="6"/></g>
<g transform="translate(627,507) scale(4.12)"><rect width="6" height="6"/></g>
<g transform="translate(651,507) scale(4.12)"><rect width="6" height="6"/></g>
<g transform="translate(267,531) scale(4.12)"><rect width="6" height="6"/></g>
<g transform="translate(315,531) scale(4.12)"><rect width="6" height="6"/></g>
<g transform="translate(363,531) scale(4.12)"><rect width="6" height="6"/></g>
<g transform="translate(411,531) scale(4.12)"><rect width="6" height="6"/></g>
<g transform="translate(459,531) scale(4.12)"><rect width="6" height="6"/></g>
<g transform="translate(555,531) scale(4.12)"><rect width="6" height="6"/></g>
<g transform="translate(579,531) scale(4.12)"><rect width="6" height="6"/></g>
<g transform="translate(627,531) scale(4.12)"><rect width="6" height="6"/></g>
<g transform="translate(267,555) scale(4.12)"><rect width="6" height="6"/></g>
<g transform="translate(291,555) scale(4.12)"><rect width="6" height="6"/></g>
<g transform="translate(315,555) scale(4.12)"><rect width="6" height="6"/></g>
<g transform="translate(363,555) scale(4.12)"><rect width="6" height="6"/></g>
<g transform="translate(387,555) scale(4.12)"><rect width="6" height="6"/></g>
<g transform="translate(435,555) scale(4.12)"><rect width="6" height="6"/></g>
<g transform="translate(459,555) scale(4.12)"><rect width="6" height="6"/></g>
<g transform="translate(483,555) scale(4.12)"><rect width="6" height="6"/></g>
<g transform="translate(507,555) scale(4.12)"><rect width="6" height="6"/></g>
<g transform="translate(531,555) scale(4.12)"><rect width="6" height="6"/></g>
<g transform="translate(555,555) scale(4.12)"><rect width="6" height="6"/></g>
<g transform="translate(603,555) scale(4.12)"><rect width="6" height="6"/></g>
<g transform="translate(627,555) scale(4.12)"><rect width="6" height="6"/></g>
<g transform="translate(651,555) scale(4.12)"><rect width="6" height="6"/></g>
<g transform="translate(267,579) scale(4.12)"><rect width="6" height="6"/></g>
<g transform="translate(291,579) scale(4.12)"><rect width="6" height="6"/></g>
<g transform="translate(315,579) scale(4.12)"><rect width="6" height="6"/></g>
<g transform="translate(387,579) scale(4.12)"><rect width="6" height="6"/></g>
<g transform="translate(459,579) scale(4.12)"><rect width="6" height="6"/></g>
<g transform="translate(507,579) scale(4.12)"><rect width="6" height="6"/></g>
<g transform="translate(555,579) scale(4.12)"><rect width="6" height="6"/></g>
<g transform="translate(579,579) scale(4.12)"><rect width="6" height="6"/></g>
<g transform="translate(603,579) scale(4.12)"><rect width="6" height="6"/></g>
<g transform="translate(627,579) scale(4.12)"><rect width="6" height="6"/></g>
<g transform="translate(651,579) scale(4.12)"><rect width="6" height="6"/></g>
<g transform="translate(267,603) scale(4.12)"><rect width="6" height="6"/></g>
<g transform="translate(291,603) scale(4.12)"><rect width="6" height="6"/></g>
<g transform="translate(315,603) scale(4.12)"><rect width="6" height="6"/></g>
<g transform="translate(339,603) scale(4.12)"><rect width="6" height="6"/></g>
<g transform="translate(363,603) scale(4.12)"><rect width="6" height="6"/></g>
<g transform="translate(387,603) scale(4.12)"><rect width="6" height="6"/></g>
<g transform="translate(411,603) scale(4.12)"><rect width="6" height="6"/></g>
<g transform="translate(579,603) scale(4.12)"><rect width="6" height="6"/></g>
<g transform="translate(603,603) scale(4.12)"><rect width="6" height="6"/></g>
<g transform="translate(651,603) scale(4.12)"><rect width="6" height="6"/></g>
<g transform="translate(291,627) scale(4.12)"><rect width="6" height="6"/></g>
<g transform="translate(339,627) scale(4.12)"><rect width="6" height="6"/></g>
<g transform="translate(411,627) scale(4.12)"><rect width="6" height="6"/></g>
<g transform="translate(435,627) scale(4.12)"><rect width="6" height="6"/></g>
<g transform="translate(459,627) scale(4.12)"><rect width="6" height="6"/></g>
<g transform="translate(483,627) scale(4.12)"><rect width="6" height="6"/></g>
<g transform="translate(531,627) scale(4.12)"><rect width="6" height="6"/></g>
<g transform="translate(555,627) scale(4.12)"><rect width="6" height="6"/></g>
<g transform="translate(579,627) scale(4.12)"><rect width="6" height="6"/></g>
<g transform="translate(651,627) scale(4.12)"><rect width="6" height="6"/></g>
<g transform="translate(267,651) scale(4.12)"><rect width="6" height="6"/></g>
<g transform="translate(315,651) scale(4.12)"><rect width="6" height="6"/></g>
<g transform="translate(339,651) scale(4.12)"><rect width="6" height="6"/></g>
<g transform="translate(363,651) scale(4.12)"><rect width="6" height="6"/></g>
<g transform="translate(531,651) scale(4.12)"><rect width="6" height="6"/></g>
<g transform="translate(555,651) scale(4.12)"><rect width="6" height="6"/></g>
<g transform="translate(579,651) scale(4.12)"><rect width="6" height="6"/></g>
<g transform="translate(603,651) scale(4.12)"><rect width="6" height="6"/></g>
<g transform="translate(627,651) scale(4.12)"><rect width="6" height="6"/></g>
<g transform="translate(651,651) scale(4.12)"><rect width="6" height="6"/></g>
<g transform="translate(75,75)"><g transform="scale(12)"><path d="M0,0v14h14V0H0z M12,12H2V2h10V12z"/></g></g>
<g transform="translate(507,75)"><g transform="scale(12)"><path d="M0,0v14h14V0H0z M12,12H2V2h10V12z"/></g></g>
<g transform="translate(75,507)"><g transform="scale(12)"><path d="M0,0v14h14V0H0z M12,12H2V2h10V12z"/></g></g>
<g transform="translate(123,123)"><g transform="scale(12)"><rect width="6" height="6"/></g></g>
<g transform="translate(555,123)"><g transform="scale(12)"><rect width="6" height="6"/></g></g>
<g transform="translate(123,555)"><g transform="scale(12)"><rect width="6" height="6"/></g></g>
</g><g transform="translate(151.14583333333,708.33333333333) scale(1.0416666666667)"><path fill="#FFFFFF" d="M32.5,118.9q5,0,8.85-2.7t3.85-8.15t-4.15-8.35t-11.8-5.05t-11.1-3.75t-6.55-4.2q-6.2-5.2-6.2-16.1q0-8.9,6.35-15.3t17.35-6.4q5.3,0,11.05,1.55t7.15,1.55t2.5-2l1.1,0l0.7,20.2l-1.6,0q-4.8-8.7-10.05-13.95t-11.4-5.25t-9.55,2.85t-3.4,7.6t4.05,7.3t9.95,4.15t7.75,2.2t4.6,1.65t4.5,2.2t3.7,2.9t3.05,3.85q2.7,4.8,2.7,11.4q0,10.8-6.75,17.35t-17.75,6.55q-5.7,0-13.05-1.5t-8.15-1.5q-1.4,0-2.7,3l-1.4,0l-1-23.8l1.7,0q4.4,8.7,11.25,15.2t14.45,6.5z M100,50.9q-15.5,0-15.5,29.9l0,7.9q0,14.2,4.1,22.25t12.1,8.05q11,0,20.2-21.4l1.8,0l-0.7,22.3l-1.1,0q-0.6-1.1-1.1-1.55t-1.45-0.45t-7.25,1.55t-12.8,1.55q-16.3,0-25.25-8.8t-8.95-26.45t9.35-27.25t25.15-9.6q6.1,0,11.95,1.55t6.85,1.55t1.5-0.45t1.1-1.55l1.1,0l0.8,21.7l-1.8,0q-4.5-10.1-9.25-15.45t-10.85-5.35z M172.2,118.1l-7.3-21.6l-19.8,0l-7.7,21.6l7.5,0l0,1.9l-15.3,0l0-1.9l4.7,0l25.5-68.7l8.2,0l25.2,68.7l4.6,0l0,1.9l-32.7,0l0-1.9l7.1,0z M155.4,68.1l-9.4,26.2l18.1,0z M257.4,51.9l0,68.1l-14,0l-34.3-64.7l0,62.8l5.5,0l0,1.9l-13.7,0l0-1.9l5.5,0l0-66.2l-5.5,0l0-1.9l27.6,0l26.2,50.2l0-48.3l-5.5,0l0-1.9l13.7,0l0,1.9l-5.5,0z  M338.2,50l26.7,0l0,1.9l-5.5,0l0,66.2l5.5,0l0,1.9l-30.5,0l0-1.9l5.5,0l0-62.5l-0.4,0l-15,64.4l-12.5,0l-17.6-64.7l-0.4,0l0,62.8l5.5,0l0,1.9l-13.6,0l0-1.9l5.5,0l0-66.2l-5.5,0l0-1.9l27,0l13.3,51.5z M369.5,50l52,0l1,19.8l-1.8,0q-4.2-10.1-8.8-13.85t-13.5-3.75l-3.5,0l0,30.9l3.4,0q4.7,0,7.9-3.55t4.5-9.55l1.5,0l0,29.6l-1.7,0q-1.8-7.5-4.85-10.7t-8.35-3.2l-2.4,0l0,32.1l3.8,0q9.2,0,15.65-5.5t8.85-14.1l2,0l-0.8,21.8l-54.9,0l0-2.2l5.9,0l0-65.6l-5.9,0l0-2.2z"/></g></svg>